<?xml version="1.0" encoding="utf-8"?>
<!-- Generator: Adobe Illustrator 24.0.2, SVG Export Plug-In . SVG Version: 6.00 Build 0)  -->
<svg version="1.1" id="Layer_1" xmlns="http://www.w3.org/2000/svg" xmlns:xlink="http://www.w3.org/1999/xlink" x="0px" y="0px"
	 viewBox="0 0 24 24" style="enable-background:new 0 0 24 24;" xml:space="preserve">
<style type="text/css">
	.st0{fill:#FFFFFF;}
</style>
<g>
	<circle class="st0" cx="9" cy="21" r="2"/>
</g>
<g>
	<circle class="st0" cx="20" cy="21" r="2"/>
</g>
<g>
	<path class="st0" d="M9.6,17c-0.7,0-1.3-0.2-1.9-0.7c-0.5-0.4-0.9-1.1-1.1-1.8L5,6.2c0,0,0-0.1,0-0.1L4.2,2H1C0.4,2,0,1.6,0,1
		s0.4-1,1-1h4c0.5,0,0.9,0.3,1,0.8L6.8,5H23c0.3,0,0.6,0.1,0.8,0.4C24,5.6,24,5.9,24,6.2l-1.6,8.4c-0.1,0.7-0.5,1.3-1.1,1.8
		c-0.5,0.4-1.2,0.7-1.9,0.7L9.6,17C9.7,17,9.6,17,9.6,17z M7.2,7l1.4,7.2c0,0.2,0.2,0.4,0.4,0.6C9.2,14.9,9.4,15,9.7,15h9.7
		c0.3,0,0.5-0.1,0.7-0.2c0.2-0.1,0.3-0.4,0.4-0.6L21.8,7H7.2z"/>
</g>
</svg>
