<?xml version="1.0" encoding="utf-8"?>
<!-- Generator: Adobe Illustrator 24.0.2, SVG Export Plug-In . SVG Version: 6.00 Build 0)  -->
<svg version="1.1" xmlns="http://www.w3.org/2000/svg" xmlns:xlink="http://www.w3.org/1999/xlink" x="0px" y="0px"
	 viewBox="0 0 765 346.7" style="enable-background:new 0 0 765 346.7;" xml:space="preserve">
<style type="text/css">
	.st0{fill:#3F4F49;}
	.st1{fill:#4C6059;}
	.st2{fill:#826464;}
	.st3{fill:#E2BEBC;}
	.st4{fill:#D3AAA9;}
	.st5{fill:#EDC8C5;}
	.st6{fill:#DDB1AF;}
	.st7{fill:#2E3644;}
	.st8{fill:none;stroke:#968181;stroke-width:1.6664;stroke-linecap:round;stroke-linejoin:round;stroke-miterlimit:10;}
	.st9{fill:none;stroke:#BC9191;stroke-width:1.6202;stroke-linecap:round;stroke-linejoin:round;stroke-miterlimit:10;}
	.st10{fill:#B25F4B;}
	.st11{fill:#62776F;}
	.st12{fill:#525260;}
	.st13{fill:#DDB5B3;}
	.st14{fill:none;stroke:#BC9191;stroke-width:0.7531;stroke-linecap:round;stroke-linejoin:round;stroke-miterlimit:10;}
	.st15{fill:#D6A538;}
	.st16{fill:none;stroke:#B78523;stroke-width:1.0041;stroke-linecap:round;stroke-linejoin:round;stroke-miterlimit:10;}
	.st17{fill:#F7C546;}
	.st18{fill:none;stroke:#D6A538;stroke-width:1.0041;stroke-linecap:round;stroke-linejoin:round;stroke-miterlimit:10;}
	.st19{fill:#F4EFEF;}
	.st20{fill:#6074A0;}
	.st21{fill:#EAE7DA;}
	.st22{fill:#C18B80;}
	.st23{fill:#B58686;}
	.st24{fill:#CEA297;}
	.st25{fill:none;stroke:#968181;stroke-width:1.6623;stroke-linecap:round;stroke-linejoin:round;stroke-miterlimit:10;}
	.st26{fill:#FFE9E9;}
	.st27{fill:#F2B95F;}
	.st28{fill:#5B411F;}
	.st29{fill:#9DB537;}
	.st30{fill:#FFDB45;}
	.st31{fill:#C1452D;}
	.st32{fill:#BC8E86;}
	.st33{fill:none;stroke:#A88080;stroke-width:0.7512;stroke-linecap:round;stroke-linejoin:round;stroke-miterlimit:10;}
	.st34{fill:#728AB5;}
	.st35{fill:none;stroke:#515B6B;stroke-width:1.4022;stroke-linecap:round;stroke-linejoin:round;stroke-miterlimit:10;}
	.st36{fill:#515B6B;}
	.st37{fill:#F2E6B1;}
	.st38{fill:#E2B7AA;}
	.st39{fill:#DDAA9E;}
	.st40{fill:#EACCC1;}
	.st41{fill:none;stroke:#564C4B;stroke-width:1.3741;stroke-linecap:round;stroke-linejoin:round;stroke-miterlimit:10;}
	.st42{fill:#BA705A;}
	.st43{fill:#B24747;}
	.st44{fill:#CCBAB6;}
	.st45{fill:none;}
	.st46{fill:#E28661;}
	.st47{fill:#4F6D61;}
	.st48{fill:url(#SVGID_1_);}
	.st49{fill:#DBCEBF;}
	.st50{fill:#E8E3D9;}
	.st51{fill:#FFFAEE;}
	.st52{fill:#49453A;}
	.st53{fill:#CE4646;}
	.st54{fill:#C9B273;}
	.st55{fill:#F2EEE4;}
	.st56{fill:#82613A;}
	.st57{fill:#594734;}
	.st58{fill:#936C41;}
	.st59{clip-path:url(#SVGID_3_);}
	.st60{fill:#677770;}
	.st61{fill:#E2D7D7;}
	.st62{fill:#6B5555;}
	.st63{fill:url(#SVGID_4_);}
</style>
<g id="BACKGROUND">
</g>
<g id="OBJECT">
	<g>
		<path class="st0" d="M90.3,143.5c-5.6-1.8-17.5,0.6-21.7,3.2c-6,3.6-25.9,63.2-26.8,69.8c-0.3,2.5-0.1,5.1-0.4,7.6
			c9.1-2.9,21.4-10.8,27.2-18.8"/>
		<path class="st0" d="M168.3,143.5c5.6-1.8,17.5,0.6,21.7,3.2c6,3.6,49.4,107.3,49.7,109.8c-9.1-2.9-43.8-24.8-49.7-51.2"/>
		<path class="st1" d="M90.3,143.5c0,0-6.1,0.4-9.1,0.9c-1.6,4.8-2.5,13.3-3.4,18.3c-3,17.1-5.6,33.7-6.7,51.1
			c-1.2,19.7-0.3,39.8-0.3,59.5c0,5.7,0.6,7.1,5.6,9.7c5.6,2.9,11.9,3.8,17.9,4.9c20.1,3.6,41.5,3.1,61.8,1.9
			c15.8-1,30.9-6.2,46.3-8.4c0.2-6.6,0.1-13.2,0-19.8c-0.1-12.6-4.1-24.5-5.3-37c-1.8-18.5-6.2-36.7-10.1-54.7
			c-1.6-7.3-4.1-14.4-5.7-21.7c-0.8-3.9-0.4-4.2-4.1-5c-4.4-1-8.9-1.3-13.4-1.5c-10.4-0.5-25.9,0.8-36.2,1.9"/>
		<g>
			<path class="st2" d="M182.5,47.8c-0.5,5.8-1.7,14-1.9,19.9c-0.1,3.6,0.5,7.6-3.7,8.2c-0.9-4.6-1-9.4-1.9-14
				c-0.8-3.9-2.6-9.2-2.1-13.3c1.5,0,3.1,0.2,4.6-0.1"/>
			<g>
				<g>
					<g>
						<g>
							<path class="st3" d="M187.9,87.9c-0.4,1-1,2-1.7,2.8c-2.8,3.5-6.9,5.8-11.2,6.1c-0.3-6.5-2.7-19,3.6-23.1
								C186,69,190,82.2,187.9,87.9z"/>
							<path class="st4" d="M182.8,87.9c-0.2,0.6-0.6,1.2-1,1.7c-1.7,2.2-4.3,3.6-6.9,3.8c-0.2-4-1.7-11.8,2.3-14.3
								C181.6,76.2,184.1,84.4,182.8,87.9z"/>
						</g>
						<g>
							<path class="st3" d="M80,90.7c0.4,1,1.1,1.9,1.8,2.7c3,3.4,7.2,5.4,11.5,5.5c0-6.5,1.7-19.1-4.8-22.9
								C81,71.7,77.7,85.1,80,90.7z"/>
							<path class="st4" d="M85.2,90.5c0.3,0.6,0.7,1.2,1.1,1.7c1.9,2.1,4.5,3.3,7.1,3.4c0-4,1.1-11.8-3-14.2
								C85.8,78.7,83.7,87,85.2,90.5z"/>
						</g>
						<path class="st5" d="M177.8,84.9c-0.4,17.7,1.8,29.7-14.2,38.4c-4.3,2.4-20.1,4.2-25.7,4.1c-13.8-0.3-34.8-1-41.2-9.3
							c-6.4-8.4-6-19.5-8.1-32.5c-2.1-13.6-5-27.1-1.3-40.5c1.3-4.7,3.3-9.4,7.4-13.2c4.2-3.8,10.1-6.4,16.2-8.3
							c10.5-3.3,20-3.2,31.3-3.4c8-0.1,22.9,3.3,28.9,8c5.4,4.3,6.6,12.1,6.9,17.8C178.4,56,178,74.9,177.8,84.9z"/>
						<path class="st6" d="M143.8,89.9c0.3,1.3,0.5,2.8-0.9,3.7c-1.2,0.8-3.1,0.8-4.7,0.7c0.3-2.9,0.5-14.7,1.2-17.5
							C141.7,80.9,142.8,85.6,143.8,89.9z"/>
						<path class="st6" d="M97.6,93.4c0.1,5.5,5,9.8,10.8,9.6c5.8-0.2,10.5-4.7,10.3-10.2c-0.1-5.5-5-9.8-10.8-9.6
							C102.1,83.4,97.5,87.9,97.6,93.4z"/>
						<path class="st6" d="M153.8,91.9c0.1,5.5,5,9.8,10.8,9.6c5.8-0.2,10.5-4.7,10.3-10.2c-0.1-5.5-5-9.8-10.8-9.6
							C158.3,81.9,153.6,86.4,153.8,91.9z"/>
						<path class="st7" d="M118.5,74.3c0,1.7-1.4,3.1-3.2,3.2c-1.8,0-3.3-1.3-3.4-3c0-1.7,1.4-3.1,3.2-3.2
							C117,71.3,118.5,72.6,118.5,74.3z"/>
						<path class="st7" d="M162,73.2c0,1.7-1.4,3.1-3.2,3.2c-1.8,0-3.3-1.3-3.4-3c0-1.7,1.4-3.1,3.2-3.2
							C160.5,70.1,162,71.5,162,73.2z"/>
					</g>
				</g>
				<path class="st8" d="M118.2,61.2c-1-0.8-2.7-0.7-4-0.6c-1.5,0.2-3.8,1.3-3.8,1.3"/>
				<path class="st8" d="M155.1,60.3c0.9-0.8,2.7-0.9,4-0.8c1.5,0.1,3.9,1.1,3.9,1.1"/>
			</g>
			<path class="st2" d="M94.7,51.9c-0.2,2.6-1.6,5.1-1.9,7.7c-0.4,2.8-0.5,5.7-0.8,8.5c-0.2,2.4-0.3,4.9-0.5,7.3
				c-1.3,0.2-3.8-0.3-4.8,0.5c-1.1-1.3-2.7-14.6-2.7-19.1c0-1.3-0.6-5.8,0.2-6.9c0.9-1.3,7.1-1.6,8.8-1.5"/>
			<path class="st9" d="M123.2,99c0.1,5.1,9.8,7,13.7,7.4c5,0.4,9.1-0.1,13.1-2.5"/>
			<path class="st10" d="M132.4,37.5c1.1,3.5,3.4,15.5,9,14.7c2.7-0.3,3-4.2,3.1-6.4c6.1,4,8.3,9.7,16.7,10.1c6,0.3,9.6,0.8,9.6-5.9
				c8.1,7.4,20.6,6.3,26.1-3.7c4.3-7.7,2.2-13-8-27.3c0.5-7.5-8.6-12.3-14.6-14.4c-10.5-3.7-29.8-6-39.7,1.7
				c-4.1,3.2-3.8,8.7-3.8,13.4C130.9,24.1,129.8,33.6,132.4,37.5z"/>
			<path class="st10" d="M139.2,35.5c2.7,5.7-16.3,20-15.6,9.6c-4,4.9-8.5,12-15.7,11.9c-2.7,0-4.6-0.6-4.9-3.7
				c-5.9,3.9-11.7,4.5-18.8,3.7c-4.9-0.6-3.5-2.1-3.8-6.4c-4-0.9-7.4-0.5-8.2-4.9c-1.2-6.1,3.8-9.8,8.7-11.8
				c-1.9-1.7-4.5-2.5-5.3-5.3c-0.7-2.5-0.1-7.4,1.1-9.6c3.5-6.6,14.9-11.8,21.5-14c13.8-4.5,46.1-12.5,46.3,10.9"/>
			<path class="st5" d="M122.6,123.7c0,4.7-0.3,9.6,0,14.3c0.1,1.2-0.1,5.8,0.7,6.8c2.5,3,11.6,1.5,15.3,1.5c4.8,0,7.8,1.5,8.1-3.8
				c0.3-6.6-0.1-13.6-0.4-20.2c-4.7-0.6-9.5-0.4-14.3-0.4"/>
		</g>
		<path class="st5" d="M114.9,141.8c12.6-0.6,26.1-0.1,38.8,0.3c3.4,11.4-9.7,14.7-19.5,14.7c-2.9,0-6.5,0.4-9.2-0.4
			c-2.3-0.7-5-2.4-6.9-3.6C114.4,150.5,113.4,147.7,114.9,141.8z"/>
		<path class="st11" d="M111.1,141.7c2.2-0.6,4.2-0.5,6.5-0.5c1.2,8.6,12.5,12.3,19.7,10.8c4.9-1,11.3-4.3,11.5-10
			c2.1,0,4.1-0.3,6.1-0.6c3-0.4,5.4,2.3,4.6,5.2c-1.3,4.9-3.7,11.4-5.7,12.7c-7.7,4.7-22.8,3.2-31.4,2.8c-5.9-0.3-10.3-3-13.1-8.4
			C107.9,151.1,106.1,143.5,111.1,141.7z"/>
		<path class="st12" d="M55.3,113.7c22,0.1,58.4-6.2,80.4-7.5c4.1-0.2,2.3,1.3,2.3,1.3c-3.2,1.7-78.9,9-83.1,9.7
			C54.6,115.9,54.4,115.6,55.3,113.7z"/>
		<path class="st12" d="M56.6,119.9c22-1.1,58-9.3,79.9-11.8c4-0.5,2.3,1.2,2.3,1.2c-3.1,1.9-78.3,13.2-82.5,14.1
			C56,122,55.8,121.8,56.6,119.9z"/>
		<g>
			<path class="st13" d="M79.7,151.2c-0.3-3.7,2.3-13,2.7-16.8c0.1-1.3-0.1-3.8,0.3-5.2c2.2-6.5,7.9-13.5,12.6-17.1
				c3.9-0.8,7.4-3.1,11.4-3.6c3.1-0.4,6.3-0.6,9.4-0.5c0.2,1.2-0.7,2-1.3,2.2c1.4,0,6.8-1.5,7.5,0.1c0.9,1.9-3.5,3.6-4.4,4.3
				c1,0.1,2.2,0,3.1,0.1c1.2,4.4-5.2,2.6-7.5,5.7c3.3-0.9,8.2,0,6.8,1.2c0.6,2-7.8,3.6-9.2,4.7c-3.7,2.9-5.4,8.3-7.6,12.5
				c-1.7,3.4-2.4,8.1-4.5,11.4c-2.9,4.7-8.1,7.4-12.4,3.2"/>
			<path class="st14" d="M92.7,121.1c1.2-1.1,0.7-1.9,1.6-3.3c0.5-0.7,1.7-1.9,1.8-2.6c1.9-1,3.5-2.2,5.8-2.7
				c3.8-0.7,7.7-2.4,11.6-2.7"/>
			<path class="st14" d="M98.3,122.1c0.5-0.8,1.4-1.4,2-2.2c0.8-1.1,1.4-1.8,2.6-2.5c3.8-2.1,8.5-2.3,12.7-2.7"/>
			<path class="st14" d="M102.2,126.5c0.7-1.4,2.4-3.1,3.8-3.7c2.4-1,5.2-1.2,7.6-2.2"/>
		</g>
		<path class="st11" d="M78.4,146.8c-0.1,2.2-2.9,5.5-4,7.3c-4.2,6.8-8,13.9-12.3,20.7c-7.5,12-28.2,56.5-30,66.9
			c-1.2,6.8-0.9,14.5,1.1,21c1.3,4.2,2,8.9,7,9.6c4.9,0.7,9.7-0.9,14.4-2c2.6-0.6,5.2-1.3,7.5-2.7c10.1-6.1,12.9-20.4,16.1-30.9
			c4.9-15.9,9.2-31.9,13.6-48c2.1-7.5,2.5-15.5,5.1-22.8c0.9-2.5,1.5-4.4,1.8-7.1c0.3-3.5-0.1-4-3.1-6.2
			C90.7,149,86.6,146.2,78.4,146.8z"/>
		<path class="st15" d="M123.6,157c-0.7-1.1-0.4-2.7-0.4-3.9c0-2.2,0-4.3,0-6.5c0-5.1,0-10.1,0-15.2c0-7-0.8-13.9-0.8-20.9
			c1.4-0.1,2.6-0.7,3.9-1c1.6-0.5,3.4-0.6,5-0.8c1.6-0.1,3.9,0.3,5.3-0.7c1,16.2,6.5,32.1,6.1,48.3
			C136.7,156.2,129.4,153.5,123.6,157z"/>
		<g>
			<path class="st16" d="M124.4,111.8c-1.1,4.1,0.1,9,0.1,13.2c0,3.9-0.1,7.8-0.4,11.6c-0.2,2.9,0.1,6,0,8.9
				c-0.1,3.2-0.3,6.3-0.3,9.5"/>
			<path class="st16" d="M127,109.6c-0.2,3.3,1.4,6.6,1.7,10c0.4,4.3,0.7,8.6,0.7,12.8c0,4.4-0.2,8.8-0.1,13.1"/>
			<path class="st16" d="M131.4,128.5c0,7,0,14.1,0,21.1c0,1.8,0.3,4.2-0.4,5.8"/>
			<path class="st16" d="M131.6,109.4c0,2.5,0.7,4.4,1.4,6.7c0.9,3.2,1.7,6.4,2.6,9.6c1.3,4.9,1.3,9.7,1.3,14.8c0,4.9,0,9.7,0,14.6"
				/>
			<path class="st16" d="M137.8,128.1c-0.2,2.9,0.6,6.1,0.9,9c0.3,2.9,0.5,5.7,0.6,8.6c0.1,3.2,0.1,6.4,0.1,9.6"/>
			<path class="st16" d="M134.2,108.3c-0.1,2.7,1.3,5.7,1.9,8.3c0.3,1.3,0.5,2.6,0.9,3.9"/>
			<path class="st16" d="M125.7,138.1c0,4.3,0.2,8.6,0.1,12.9"/>
		</g>
		<g>
			<path class="st15" d="M143.6,156.3c2.7-0.6,5.8-0.8,8.7-0.5c3.9,0.4,7.9,0.6,11.9,1.2c3.8,0.5,7.8,2.6,11.3,4.2
				c1.4,0.6,3.8,2.4,3.6,4.1c-10.1,0.7-20.3-1-30.4-0.6c-0.2-1.3,0-2.7-0.2-4"/>
			<path class="st17" d="M92.7,163.8c-0.9-3.8,9.2-6,11.7-6.3c4-0.5,8.1,0.2,12-0.6c4.5-0.9,7.8-1.9,12.6-1.9c9.4,0,18.1,1.9,27.4,3
				c4.4,0.5,10.9,0.8,14.6,3.4c2.1,1.5,3.1,3.9,4.7,5.6c-9.9,0.7-19.9,0.4-29.8,1.1c-5.8,0.4-10.7,0.4-16.3,0
				c-9.1-0.8-18.4,0.2-27.5-0.8"/>
			<g>
				<path class="st18" d="M97.8,162.9c4.5-1.9,8.4-2.8,13.3-3c3.2-0.1,6.2-1.1,9.4-1.4c9.1-0.8,19.5-1.5,28.2,1.7
					c1.8,0.7,3.6,1.5,5.2,2.5c1,0.6,2.2,2.1,3.4,2.2"/>
				<path class="st18" d="M108.6,163.3c2.4-1.6,6.7-2.3,9.5-2.4c3.6-0.1,7.1-0.5,10.7-0.3c4.8,0.2,9.8,0.5,14.6,1.3
					c1.2,0.2,2.6,0.3,3.7,1c0.7,0.4,1.1,1.2,1.8,1.5"/>
				<path class="st18" d="M123.4,164c2.7-1.4,8.7-1.2,11.5,0.1"/>
				<path class="st18" d="M169.2,161.1c-3.7-0.2-7.6,1.8-10.2,4.3"/>
				<path class="st18" d="M155.2,163c2.2-2.1,4.5-3.1,7.3-3.8"/>
				<path class="st18" d="M152.2,161.1c0-1,2.1-1.3,2.9-1.3"/>
			</g>
			<path class="st19" d="M161.4,164.3c7.1,0.3,14.6-0.3,20.8,1c0.5,13.5-8.3,29.8-22.2,35.7c-10.4,4.4-22.9,3.7-34.2,3.2
				c-10.1-0.5-22.2-6.5-28.7-13.6c-5.4-5.9-7.9-20.6-7.5-27.8C89.6,162.6,144.7,163.5,161.4,164.3z"/>
			<g>
				<path class="st13" d="M181,212.5c-2.3,3-8.3,5.4-11,8c-1,0.9-0.8-5.4-2-4.7c-6,3.4-14.9,5-20.7,4.6c-3.5-2-7.6-2.6-10.9-4.8
					c-2.6-1.7-5.1-3.6-7.4-5.8c0.6-1.1,1.8-1.1,2.4-0.8c-1-0.9-6.1-3.3-5.6-5.1c0.6-2,5-0.4,6.2-0.3c-0.7-0.7-1.6-1.4-2.3-2.2
					c2-4,5.6,1.4,9.4,0.6c-3.1-1.5-6.1-5.4-4.3-5.4c0.9-1.9,8.2,2.4,10,2.5c4.7,0.3,15-2.6,19.4-4.4c3.5-1.4,3.9-7.3,5.2-3.5
					c3.2,9.5,13.6,15.8,14.1,21.8"/>
				<path class="st14" d="M157.9,214.8c-1.7,0.1-4.7,1.5-6.2,1.9c-0.8,0.2-2.5,0.3-3.1,0.7c-2-0.5-4.1-0.7-6.1-1.8
					c-3.4-1.9-7.4-3.3-10.5-5.7"/>
				<path class="st14" d="M157.1,209.1c-0.9,0.3-7.5,1.9-8.5,2.2c-1.3,0.3-2.2,0.4-3.6,0.1c-4.2-1-7.9-3.8-11.4-6.3"/>
				<path class="st14" d="M157.1,203.1c-1.4,0.6-9.4,2.7-10.8,2.2c-2.5-0.8-4.8-2.5-7.2-3.3"/>
			</g>
			<path class="st13" d="M172.8,199.8c-1.2-3.7,2.9-11.4,3.8-13.7c0.6-1.6,0-3.8-2.1-3.3c-0.8,0.2-1.6,0.9-2.1,1.4
				c-1.5,1.6-4.2,5.9-5.4,7.8c-2.6,4.2-3.4,5.8-4.4,9.3"/>
		</g>
		<path class="st11" d="M164.8,219.1c1.5,0.7,3,4,4,5.4c3.6,5.4,7.4,10.6,10.9,16.1c6.2,9.7,31.4,39.3,38.3,43.6
			c4.5,2.8,10,4.4,15.4,4.4c3.4,0,7,0.5,9.1-3.8c2-4.2,2.4-8.8,3.1-13.3c0.4-2.4,0.7-4.9,0.4-7.3c-1.2-10.5-10.5-16.6-17-22.1
			c-9.8-8.4-19.9-16.2-30-24.2c-4.7-3.7-10.3-6.1-14.6-10.3c-1.5-1.4-2.7-2.5-4.5-3.4c-2.4-1.2-2.9-0.9-5.4,1.2
			C170.2,208.8,166.9,211.8,164.8,219.1z"/>
	</g>
	<g>
		<path class="st20" d="M578.5,153.8c-5.6-1.8-17.4,0.6-21.6,3.2c-6,3.6-44.8,74.5-45.7,81.1c-0.3,2.5,18.8-6.5,18.5-3.9
			c9.1-2.9,21.4-10.8,27.2-18.8"/>
		<path class="st21" d="M578.5,153.8c0,0-6.1,0.4-9.1,0.9c-1.6,4.8-2.5,13.3-3.4,18.3c-3,17,2.9,29.3,1.8,46.7
			c-1.2,19.7-0.4,48.3-0.4,68c0,5.7-7.8,2.7-2.8,5.4c5.6,2.9,11.9,3.8,17.9,4.9c20,3.6,41.4,3.1,61.7,1.9c15.7-1,30.9-6.2,46.2-8.4
			c0.2-6.5,0.1-13.2,0-19.7c-0.1-12.6-4.1-24.5-5.3-36.9c-1.8-18.4-6.2-36.6-10.1-54.5c-1.6-7.3-4.1-14.3-5.7-21.7
			c-0.8-3.9-0.4-4.2-4.1-5c-4.4-1-8.9-1.3-13.4-1.5c-10.3-0.5-67.2-1.2-77.4-0.1"/>
		<g>
			<g>
				<g>
					<g>
						<g>
							<path class="st22" d="M675.8,98.2c-0.4,1-1,2-1.6,2.8c-2.8,3.5-6.9,5.7-11.1,6.1c-0.3-6.5-2.7-18.9,3.6-23
								C673.9,79.4,677.9,92.5,675.8,98.2z"/>
							<path class="st23" d="M670.7,98.3c-0.2,0.6-0.6,1.2-1,1.7c-1.7,2.2-4.3,3.6-6.9,3.8c-0.2-4-1.7-11.7,2.2-14.3
								C669.5,86.6,672,94.8,670.7,98.3z"/>
						</g>
						<g>
							<path class="st22" d="M568.2,101c0.4,1,1.1,1.9,1.8,2.7c3,3.4,7.2,5.4,11.4,5.5c0-6.5,1.7-19.1-4.8-22.8
								C569.2,82.1,565.9,95.4,568.2,101z"/>
							<path class="st23" d="M573.3,100.8c0.3,0.6,0.7,1.2,1.1,1.7c1.8,2.1,4.4,3.3,7.1,3.4c0-4,1.1-11.8-3-14.1
								C574,89.1,571.9,97.4,573.3,100.8z"/>
						</g>
						<path class="st24" d="M665.7,95.3c-0.4,17.6,1.8,29.6-14.1,38.3c-4.3,2.4-20,4.2-25.6,4.1c-13.8-0.3-34.7-1-41.1-9.3
							c-6.4-8.3-6-19.5-8-32.4c-2.1-13.5-5-27.1-1.3-40.4c1.3-4.7,3.3-9.4,7.3-13.1c4.1-3.8,10.1-6.3,16.2-8.2
							c10.5-3.3,20-3.2,31.2-3.4c8-0.1,22.9,3.3,28.8,8c5.4,4.3,6.6,12,6.9,17.7C666.3,66.5,665.9,85.3,665.7,95.3z"/>
						<path class="st22" d="M631.9,100.2c0.3,1.3,0.5,2.8-0.9,3.7c-1.2,0.8-3.1,0.8-4.7,0.7c0.3-2.9,0.5-14.7,1.2-17.4
							C629.7,91.3,630.8,95.9,631.9,100.2z"/>
						<path class="st22" d="M585.8,103.7c0.1,5.4,5,9.7,10.8,9.6c5.8-0.2,10.4-4.7,10.3-10.1c-0.1-5.4-5-9.7-10.8-9.6
							C590.2,93.7,585.6,98.3,585.8,103.7z"/>
						<path class="st22" d="M641.8,102.3c0.1,5.4,5,9.7,10.8,9.6c5.8-0.2,10.4-4.7,10.3-10.1c-0.1-5.4-5-9.7-10.8-9.6
							C646.3,92.3,641.7,96.8,641.8,102.3z"/>
					</g>
				</g>
				<path class="st25" d="M606.3,71.6c-1-0.8-2.7-0.7-4-0.6c-1.5,0.2-3.8,1.3-3.8,1.3"/>
				<path class="st25" d="M643.1,70.7c0.9-0.8,2.7-0.9,3.9-0.8c1.5,0.1,3.8,1.1,3.8,1.1"/>
			</g>
			<path class="st26" d="M611.3,107.6c-2,12.5,10.5,14.1,14.8,14.5c5.5,0.5,12.9-0.4,14.9-8.4C635,111.2,611.3,107.6,611.3,107.6z"
				/>
			<path class="st24" d="M610.7,134c0,4.7-0.3,9.5,0,14.3c0.1,1.2-0.1,5.8,0.7,6.8c2.5,3,11.6,1.5,15.2,1.5c4.8,0,7.8,1.5,8.1-3.8
				c0.3-6.5-0.1-13.6-0.4-20.2c-4.7-0.6-9.5-0.4-14.2-0.4"/>
		</g>
		<path class="st24" d="M603,152.1c12.6-0.6,26.1-0.1,38.7,0.3c3.4,11.4-9.6,28.8-19.4,28.8C619.4,181.2,601.5,157.9,603,152.1z"/>
		<path class="st20" d="M603.4,150.8c-0.5,17.2,7.6,82.2,7.7,97c0.1,14.8,1.6,40.7,1.3,55.6c-11.1,1-43.7-1.5-51-12.4
			c-0.2-6.5,0.9-13.6,1.3-20.1c0.9-16.5,0.7-33.1,0.7-49.6c0-20.4-1.6-41.6,2.3-61.8c0.5-2.3,0.9-4.6,2.7-5.7
			c2.7-1.6,9.6-1.6,12.7-1.9C588.8,151.2,596.2,150.8,603.4,150.8z"/>
		<path class="st20" d="M639.3,151.8c0.5,17.2,1.5,137,1.8,151.8c11.1,1,54.6-4.4,54.3-10.9c-0.9-16.5-8.5-48.2-8.5-64.7
			c0-20.4-5.9-47.3-9.8-67.4c-0.5-2.3-0.9-4.6-2.7-5.7c-2.7-1.6-9.6-1.6-12.7-1.9C653.9,152.1,646.4,151.8,639.3,151.8z"/>
		<g>
			<path class="st27" d="M650.9,140.7c0,2-1,5.9-1.6,7.8c-0.6,1.9-1.6,1.8-3.7,2c-7.7,0.8-15.2,1.7-23,1.4
				c-6.9-0.3-16.5-0.6-23.3-1.5c-2.4-0.3-3.2-3.2-3.9-5.6c1.8-0.5,3.8-0.3,5.6-0.3c4.7,0,9.3,0.6,14,0.7c4.4,0.1,8.8,0,13.3,0
				c2.5,0,5-0.5,7.5-0.4"/>
			<path class="st28" d="M602.4,145.6c2.9,1,7.2,0.9,10.3,1.1c3.8,0.3,7.6,0.4,11.4,0.4c5.5,0,11.2,0.4,16.7-0.5
				c2.6-0.4,5.6-0.7,7.9-1.8c1.1-0.5,1.5-0.9,1.8-2c0.3-1.3,0.4-3.3,0.3-4.6c-2.1-0.1-4.5,0.7-6.6,0.8c-2.8,0.2-5.7,0.4-8.5,0.4
				c-5.7,0.1-11.5,0.8-17.2,0.7c-5.4-0.1-10.9-0.6-16.3-0.7c-1.3,0-4,0-4.9-0.8c0,1.4-0.8,3.2-0.4,4.5
				C597.4,144.7,599.2,145.2,602.4,145.6z"/>
			<path class="st29" d="M649.5,135.2c1.8,1,3.6,2.4,3,4.7c-1.6,0.5-3.5,0.6-4.8-0.7c-0.7,3.6-3.4,4.6-5.8,1.3
				c-2.5,2.4-8,8.7-9.5,2.5c-2.8,3.3-4.8,0.9-7-1.4c-1.9,2.7-5.1,3.3-7,0.6c-2.3,2.6-7.3,4.4-9.2,0.5c-5.2,1.9-7.8,4.1-10.6-2
				c-3.1,1-5,2.9-6.6,0.1c-0.9-1.5-0.9-3.3,0.3-4.5c1.5-1.7,4.4-1.2,6.4-1.2c10.2-0.1,20.6-2.3,30.7-3.9"/>
			<path class="st30" d="M615,137.9c2.4,2,5.2,4.3,7.8,5.9c0.3,0.2,0.7,0.7,1.1,0.7c0.9,0,2.8-2.1,3.5-2.5c1.8-1.2,4.8-2.2,6.1-3.9
				c0.3-0.4,0.3-1.1,0.7-1.5c-2.3-1.3-6.7-0.4-9.3-0.4c-1.8,0-3.5,0-5.3,0C618.1,136.1,615.8,135.7,615,137.9z"/>
			<path class="st31" d="M603,135.8c3.6,3.3,7.2,3.6,11.9,3.6c2,0,6.3-0.7,6.8-2.9c-4.4,0-9-0.1-13.4-0.5
				C606.6,135.9,604.9,135.3,603,135.8z"/>
			<path class="st31" d="M626.9,137.5c4.1,2.7,7.7,2.4,12.3,1.6c2-0.3,6.1-1.7,6.2-4c-4.3,0.7-8.9,1.5-13.3,1.8
				C630.4,136.9,628.7,136.7,626.9,137.5z"/>
			<path class="st28" d="M602.4,135.9c2.9,1,7.2,0.9,10.3,1.1c3.8,0.3,7.6,0.4,11.4,0.4c5.5,0,11.2,0.4,16.7-0.5
				c2.6-0.4,5.6-0.7,7.9-1.8c1.1-0.5,1.5-0.9,1.8-2c0.3-1.3,0.4-3.3,0.3-4.6c-2.1-0.1-4.5,0.7-6.6,0.8c-2.8,0.2-5.7,0.4-8.5,0.4
				c-5.7,0.1-11.5,0.8-17.2,0.7c-5.4-0.1-10.9-0.6-16.3-0.7c-1.3,0-4,0-4.9-0.8c0,1.4-0.8,3.2-0.4,4.5
				C597.4,135.1,599.2,135.5,602.4,135.9z"/>
			<path class="st29" d="M649.5,125.6c1.8,1,3.6,2.4,3,4.7c-1.6,0.5-3.5,0.6-4.8-0.7c-0.7,3.6-3.4,4.6-5.8,1.3
				c-2.5,2.4-8,8.7-9.5,2.5c-2.8,3.3-4.8,0.9-7-1.4c-1.9,2.7-5.1,3.3-7,0.6c-2.3,2.6-7.3,4.4-9.2,0.5c-5.2,1.9-7.8,4.1-10.6-2
				c-3.1,1-5,2.9-6.6,0.1c-0.9-1.5-0.9-3.3,0.3-4.5c1.5-1.7,4.4-1.2,6.4-1.2c10.2-0.1,20.6-2.3,30.7-3.9"/>
			<path class="st27" d="M593.4,123.7c0.1-4.3,8.2-7.6,11.7-8.5c4.5-1.1,8.7-1.6,13.3-1.6c8.6,0,16.7-0.7,24.6,2.5
				c3.6,1.5,14.2,8.5,5.9,10.9c-11.8,3.4-26.6,1.9-38.9,1.9C605.3,129,594.2,130.1,593.4,123.7z"/>
		</g>
		<g>
			<path class="st32" d="M568.7,162.3c0.3-3.7,4.3-12.5,5.2-16.2c0.3-1.3,0.4-3.8,1.1-5.1c3.2-6.1,9.8-12.2,15-15
				c4-0.2,7.8-1.9,11.8-1.8c3.1,0.1,6.3,0.3,9.3,0.9c0.1,1.2-0.9,1.9-1.6,2c1.3,0.3,6.9-0.5,7.4,1.3c0.6,2-4,3-5,3.6
				c1,0.2,2.1,0.3,3.1,0.6c0.5,4.5-5.5,1.8-8.2,4.5c3.4-0.4,8,1.2,6.5,2.2c0.3,2.1-8.2,2.4-9.7,3.2c-4.1,2.3-6.6,7.4-9.3,11.2
				c-2.2,3.1-3.6,7.6-6.2,10.6c-3.6,4.2-9.1,6.1-12.7,1.3"/>
			<path class="st33" d="M586,134.5c1.4-1,1-1.8,2.1-3c0.6-0.6,1.9-1.6,2.2-2.3c2-0.7,3.8-1.7,6.1-1.8c3.9-0.2,7.9-1.2,11.9-0.9"/>
			<path class="st33" d="M591.3,136.4c0.6-0.8,1.6-1.2,2.3-1.9c0.9-0.9,1.6-1.6,2.9-2c4.1-1.5,8.7-1,12.9-0.8"/>
			<path class="st33" d="M594.5,141.3c0.9-1.2,2.9-2.7,4.3-3c2.5-0.7,5.4-0.4,7.8-1.1"/>
		</g>
		<path class="st34" d="M568.1,157.7c-0.4,2.1-3.7,5-5,6.6c-5.1,6.1-10,12.5-15.2,18.5c-9.2,10.7-36.3,51.5-39.6,61.5
			c-2.2,6.6-3,14.1-2,20.9c0.6,4.3,0.7,9.1,5.5,10.5c4.7,1.4,9.7,0.5,14.5,0.1c2.6-0.2,5.3-0.5,7.8-1.5
			c10.9-4.5,15.7-18.2,20.5-28.1c7.2-14.9,13.8-30.1,20.6-45.3c3.2-7.1,4.8-14.9,8.4-21.7c1.3-2.3,2.2-4.1,2.8-6.7
			c0.9-3.4,0.5-3.9-2.1-6.5C579.9,161.7,576.2,158.3,568.1,157.7z"/>
		<path class="st20" d="M670.5,153.8c5.6-1.8,17.4,0.6,21.6,3.2c6,3.6,44.8,74.5,45.7,81.1c0.3,2.5-18.8-6.5-18.5-3.9
			c-9.1-2.9-21.4-10.8-27.2-18.8"/>
		<g>
			<path class="st32" d="M680.3,162.3c-0.3-3.7-4.3-12.5-5.2-16.2c-0.3-1.3-0.4-3.8-1.1-5.1c-3.2-6.1-9.8-12.2-15-15
				c-4-0.2-7.8-1.9-11.8-1.8c-3.1,0.1-6.3,0.3-9.3,0.9c-0.1,1.2,0.9,1.9,1.6,2c-1.3,0.3-6.9-0.5-7.4,1.3c-0.6,2,4,3,5,3.6
				c-1,0.2-2.1,0.3-3.1,0.6c-0.5,4.5,5.5,1.8,8.2,4.5c-3.4-0.4-8,1.2-6.5,2.2c-0.3,2.1,8.2,2.4,9.7,3.2c4.1,2.3,6.6,7.4,9.3,11.2
				c2.2,3.1,3.6,7.6,6.2,10.6c3.6,4.2,9.1,6.1,12.7,1.3"/>
			<path class="st33" d="M663,134.5c-1.4-1-1-1.8-2.1-3c-0.6-0.6-1.9-1.6-2.2-2.3c-2-0.7-3.8-1.7-6.1-1.8c-3.9-0.2-7.9-1.2-11.9-0.9
				"/>
			<path class="st33" d="M657.7,136.4c-0.6-0.8-1.6-1.2-2.3-1.9c-0.9-0.9-1.6-1.6-2.9-2c-4.1-1.5-8.7-1-12.9-0.8"/>
			<path class="st33" d="M654.5,141.3c-0.9-1.2-2.9-2.7-4.3-3c-2.5-0.7-5.4-0.4-7.8-1.1"/>
		</g>
		<path class="st34" d="M680.9,157.7c0.4,2.1,3.7,5,5,6.6c5.1,6.1,10,12.5,15.2,18.5c9.2,10.7,36.3,51.5,39.6,61.5
			c2.2,6.6,3,14.1,2,20.9c-0.6,4.3-0.7,9.1-5.5,10.5c-4.7,1.4-9.7,0.5-14.5,0.1c-2.6-0.2-5.3-0.5-7.8-1.5
			c-10.9-4.5-15.7-18.2-20.5-28.1c-7.2-14.9-13.8-30.1-20.6-45.3c-3.2-7.1-4.8-14.9-8.4-21.7c-1.3-2.3-2.2-4.1-2.8-6.7
			c-0.9-3.4-0.5-3.9,2.1-6.5C669.1,161.7,672.8,158.3,680.9,157.7z"/>
		<path class="st35" d="M598.9,85.4c-0.4,2.5,3.5,3.7,5.4,3.5c2.6-0.2,4.5-1.6,4.5-4.3"/>
		<path class="st35" d="M642.1,85.1c-0.4,2.5,3.5,3.7,5.4,3.5c2.6-0.2,4.5-1.6,4.5-4.3"/>
		<path class="st36" d="M641,46.6c1.5,10.3-25.8,22.6-27.5,13.1c-0.3-0.1-0.5-0.1-0.8,0c-1.7,3.4-5,5.4-8.6,6.7
			c-2.8,1-12.8,3.2-14.2-0.7c-3.5,2.2-4.3,4.8-8.7,5.7c-3.3,0.7-6.9,0.8-10.4,0.6c-5.9-0.4-9.7-6-4.6-11c-2.1-2.9-6.3-3.3-8.2-6.8
			c-2.9-5.3-4.5-15.7-0.5-20.7c2.3-2.9,6.8-7.2,10.4-8.5c0.9-0.3,3.6,0.1,4.1-0.3c1.4-1.1,0.3-2.3,1-3.9c0.9-2.1,3.9-4.6,5.8-5.9
			c5-3.6,11.7-4.7,17.7-5.8c2.4-0.4,4.9-0.4,7.4-0.4c4.2,0,8.3,0,12.5,0c2.3,0,6-0.7,8.3,0c2.4,0.8,5.1,2.6,7.7,3.8
			c4,1.8,7.1,3.4,9,7.6C643.7,25.3,648.4,44.3,641,46.6z"/>
		<path class="st36" d="M642.6,39.6c-0.3,6.6,2.8,14.9,10.3,15.4c0.4,8.1-0.1,15.8,8.3,20.2c8.1,4.3,9.8-3.6,10.8-10.2
			c0.7-4.7,1.6-11.1,0.5-15.7c-0.5-2-3.8-4.6-3.9-6.3c-0.1-1.7,2.3-2.9,2.8-4.6c0.4-1.5,0.1-4.6-0.4-6c-1.8-5.3-7.1-9.3-11.4-12.5
			c-5.5-4.1-19.1-8.9-24.3-1.9"/>
		<path class="st36" d="M567.8,66.7c-0.3,5.8,2.5,13.8,4.7,19c1.2,0.1,2.4,0.1,3.6,0c-0.1-6.5,1.1-13.1,1.1-19.7"/>
	</g>
	<g>
		<path class="st37" d="M322.5,72.8c1.3,6.2-7.7,10.4-12.3,12.5c-2.7,1.2-6.9,2.4-8.1,5.5c-1.4,3.7,1.6,4.2,2.9,6.8
			c0.7,1.4,1.6,0.1,1.3,2c-0.1,1-2.8,2.3-3.5,3c-1.4,1.5-2.8,3.4-3.4,5.4c-2.3,8.1,1.7,14.2,10.3,13.5c0.8,6.7-0.7,12.6,2.7,18.9
			c3.7,6.9,11.3,13.1,19.6,12.1c5.2-0.6,3.9-1,8.8,3.1c6.7,5.6,13.3,8.4,22,8.2c3.6-0.1,7-0.1,10.3-1.6c2.4-1.1,4.3-4,6.7-4.8
			c5-1.8,9,4.5,13.8,6.6c7.6,3.3,25.1,3.6,27.4-6.9c9-0.5,14.4,0.5,20-8c4.3-6.6,3.8-13.3-0.2-19.5c6.3-5.9,10.7-16,7.4-24.7
			c-1.3-3.6-4.6-3.9-6.2-6.6c-1.4-2.3,0.4-3.4,1.3-6.1c2.1-6-0.2-10.8-4.7-15.1c-5.3-5.1-16.7-8.9-18.8-16.3"/>
		<g>
			<g>
				<g>
					<g>
						<g>
							<g>
								<g>
									<path class="st38" d="M320,96.1c0.5,1,1.1,1.9,1.9,2.8c3.2,3.4,7.6,5.5,12.1,5.6c-0.1-6.6,1.8-19.3-5.2-23.2
										C320.9,76.9,317.5,90.4,320,96.1z"/>
									<path class="st39" d="M325.4,95.9c0.3,0.6,0.7,1.2,1.2,1.7c2,2.1,4.7,3.4,7.5,3.5c0-4.1,1.1-12-3.2-14.4
										C326,84.1,323.8,92.4,325.4,95.9z"/>
								</g>
								<g>
									<path class="st38" d="M433.7,93.8c-0.4,1.1-1,2-1.7,2.8c-3,3.6-7.3,5.8-11.8,6.1c-0.3-6.6-2.9-19.3,3.8-23.4
										C431.6,74.6,435.9,88,433.7,93.8z"/>
									<path class="st39" d="M428.3,93.8c-0.2,0.7-0.6,1.2-1.1,1.8c-1.8,2.2-4.5,3.6-7.3,3.8c-0.2-4.1-1.8-11.9,2.3-14.5
										C427,82,429.7,90.2,428.3,93.8z"/>
								</g>
								<path class="st38" d="M389.1,130.9c0,8.4,0.6,16.8,0.6,25.3c-7.2,0.3-15.2,0.7-22.4-0.1c-1.4-8.7-0.3-18.4-0.2-27.2
									c10.8-1.8,23.8-0.2,34.8-0.2"/>
								<path class="st40" d="M330.5,92.6c1.5,17.9-0.2,30.1,17.1,38.2c4.7,2.2,21.4,3.3,27.3,3c14.6-0.9,36.6-2.6,42.9-11.4
									c6.3-8.8,5.2-20,6.6-33.3c1.4-13.8,1-33.8-3.6-47.1c-1.6-4.7-1.3-3.3-5.8-6.9c-4.6-3.7-11-5.9-17.6-7.6
									c-11.2-2.8-21.3-2.3-33.2-1.9c-8.4,0.3-23.9,4.5-29.9,9.5c-5.4,4.6-6.3,12.5-6.2,18.3C328.2,63.4,329.7,82.5,330.5,92.6z"/>
								<path class="st38" d="M366.5,96c-0.3,1.3-0.4,2.9,1.2,3.8c1.3,0.8,3.3,0.7,5,0.5c-0.5-3-1.3-14.9-2.2-17.6
									C368.3,86.9,367.4,91.6,366.5,96z"/>
								<path class="st39" d="M415.4,97.3c0.2,5.5-4.7,10.1-10.9,10.2c-6.2,0.1-11.3-4.3-11.4-9.8c-0.2-5.5,4.7-10.1,10.9-10.2
									C410.1,87.4,415.2,91.8,415.4,97.3z"/>
								<path class="st39" d="M356.1,98.6c0.2,5.5-4.7,10.1-10.9,10.2c-6.2,0.1-11.3-4.3-11.4-9.8c-0.2-5.5,4.7-10.1,10.9-10.2
									C350.9,88.7,356,93,356.1,98.6z"/>
								<path class="st7" d="M392.3,79.1c0.1,1.7,1.7,3.1,3.6,3.1c1.9,0,3.4-1.5,3.4-3.2c-0.1-1.7-1.7-3.1-3.6-3.1
									C393.7,75.9,392.2,77.4,392.3,79.1z"/>
								<path class="st7" d="M346.4,80c0.1,1.7,1.7,3.1,3.6,3.1c1.9,0,3.4-1.5,3.4-3.2c-0.1-1.7-1.7-3.1-3.6-3.1
									C347.8,76.9,346.3,78.3,346.4,80z"/>
							</g>
						</g>
						<path class="st41" d="M391.8,67.1c1-0.8,2.8-0.9,4.2-0.8c1.5,0.1,4.1,1.1,4.1,1.1"/>
						<path class="st41" d="M352.8,67.9c-1-0.8-2.9-0.7-4.2-0.6c-1.5,0.1-4,1.3-4,1.3"/>
					</g>
				</g>
			</g>
			<path class="st42" d="M357.4,110.2c8.4-1.6,23.9-4.6,29.7-3.9c1.2,9.2-8.8,14-16.3,13.6C364.7,119.7,359.9,116.1,357.4,110.2z"/>
			<path class="st38" d="M422.5,147.3c6.2,0,12.6,1.6,15.2,7.6c2.9,6.7,4.7,12.7,6.4,20.1c4.2,18.6,4.4,38.7,10.7,56.4
				c1.2,3.4,2.3,6.8,3.2,10.2c1,3.8,3.4,8.6,3.1,12.2c-8.1,0.4-17.4,2.5-22.5-4c-4.5-5.7-9.5-11-13.8-17.4
				c-8.2-12.2-11.5-25.5-11.7-40.2c-0.2-9.4,1.1-18.9,2.2-28.1c0.7-6.1,0.4-8.2,4.4-13.2"/>
			<path class="st38" d="M346.4,140.9c-6.2,0-12.6,1.6-15.2,7.6c-2.9,6.7-37.5,93-38.4,96.5c-1,3.8-4,9.5,15,2.6
				c8.1,0.4,47.9-46.9,48.1-61.6c0.2-9.4-1.1-18.9-2.2-28.1c-0.7-6.1-0.4-8.2-4.4-13.2"/>
			<path class="st43" d="M397.1,145.8c7.8,0.5,22.1,1.2,29.8,1.8c3.3,30.3-7.3,69.6-7.4,100.1c0,11.1,8.8,37.4,8.9,43.4
				c-13,6.5-31.6,8.6-51.8,8.6c-12.3,0-33.1-4.2-45.2-5.9c-0.6-4.3,3.2-8.6,4.9-12.3c1.9-4,2.8-9.4,3.5-13.8c1.2-8.6,3-19,0.7-27.5
				c-5.6-20.3-13.4-38.9-10.3-61c1.2-8.8,5.5-16.5,9.5-24.5c3.7-7.4,6.2-5.9,14.4-5.9"/>
			<path class="st38" d="M360.8,147.1c3.2,2.9,12.3,36.1,14,39.7c9-6.8,24.6-36.3,23.7-41.2C386.5,144.8,372.6,144.1,360.8,147.1z"
				/>
			<g>
				<g>
					<path class="st0" d="M387,132.4c-0.5-4.3-4.2-7.7-8.6-7.8c-7.5-0.2-15.6-2.3-23-1.8c-6.5,0.5-8.1,1.5-9.7,8.7
						c-2.6,12.5-3.4,25.8-4.8,38.4c-0.5,4.6-3.6,15.7,0.1,18.9c3.8,3.2,11.7,3.4,16.5,3.9c5.2,0.5,10.3,1.1,15.5,1.6
						c4.8,0.5,5.8,0.1,7.5-4.2C384.2,181.1,388.2,141.6,387,132.4z"/>
					<path class="st44" d="M382.9,131c-1.5-0.6-2.5-1.9-4.1-2.5c-1.4-0.5-3-0.9-4.5-1.2c-3.1-0.6-6.2-0.8-9.4-1.1
						c-3.8-0.4-9.8-2-13,0c-0.9,0.6-2.3,1.5-2.5,2.6c-0.6,2.3,2.4,2.7,4.1,3.1c7.3,1.9,15.2,2.5,22.7,3.3
						C380.5,135.6,382.9,136.3,382.9,131z"/>
					<g>
						<path class="st45" d="M380.6,131.8c-1.6-0.6-3.3-0.9-5-1.3c-3.4-0.7-7-0.9-10.5-1.3c-4.2-0.4-11-2.1-14.5-0.2
							c-0.3,0.2-0.7,0.4-1.1,0.7c-0.1-0.3-0.2-0.7-0.1-1.1c0.3-1,1.6-2,2.5-2.6c3.2-2,9.3-0.4,13,0c3.1,0.3,6.3,0.5,9.4,1.1
							c1.5,0.3,3,0.7,4.5,1.2c1.6,0.6,2.6,1.9,4.1,2.5c0,0.8-0.1,1.5-0.2,2C382.1,132.6,381.4,132.1,380.6,131.8z"/>
						<path class="st46" d="M365.1,129.3c3.5,0.4,7,0.6,10.5,1.3c1.7,0.3,3.4,0.7,5,1.3c0.8,0.3,1.5,0.7,2.2,1.2
							c-0.6,3.1-2.9,2.6-6.4,2.2c-7.5-0.8-15.4-1.4-22.7-3.3c-1.4-0.4-3.6-0.7-4.1-2c0.4-0.3,0.7-0.5,1.1-0.7
							C354.1,127.2,360.9,128.9,365.1,129.3z"/>
					</g>
					<path class="st47" d="M382.7,148c-0.5-0.3-1.2-0.4-1.9-0.4c-1,5.5-1.7,11-2.2,16.6c1.5,0.6,1.6,0.5,2.3-0.7
						c1.3-2.1,1.1-6.1,1.4-8.5C382.6,153.3,383.4,150,382.7,148z"/>
					<path class="st0" d="M384.6,138.9c3.8,1.3,7.7,0.9,11.5,2.8c5.5,2.8,5.5,9,5.5,14.7c0,5.3-1.1,10.4-1.3,15.7
						c-0.1,2.5,0.2,6-1,8.3c-2.7,5.2-15.3,4.3-19.7,4.1c-0.1-1.7,0-3.5-0.1-5.2c4.8-0.2,9.7-1.4,14.4-2.4c0.7-0.2,1.9,0.3,2.4-0.3
						c1.2-1.3,0.8-4.5,0.8-6c0-5.6,0.3-11.3-0.1-16.9c-0.3-5-0.5-6-5.2-8.1C388.9,144.3,384.5,144.5,384.6,138.9z"/>
				</g>
			</g>
		</g>
		<path class="st37" d="M358.4,34.1c-0.5,7.1,4,17.7,9.7,22.2c2.7,2.1,6.7,3.1,9.8,4.2c12.6,4.3,24.7,11.7,38.7,10.3
			c3.4-0.3,8.9-0.4,11.1-3.7c2.4-3.7,1.8-12.9,1.3-17.1c-2-17.3-12-41.8-48.1-41.8c-6.2,0-14.4,2.3-20.4,3.9c-3,0.8-6.3,3.6-7.2,6.6
			C352.1,22.4,353.2,29.7,358.4,34.1z"/>
		<path class="st37" d="M364.3,37.7c0.8,12.3-9.5,16.4-19.7,22.3c-5,2.8-9.3,19-15,20.5c-7,1.9-7.9-8.1-9.3-13.5
			c-4.2-16.5-4.9-42.9,13.7-50.9c9-3.9,16.2-4.1,23.2,2.4"/>
		<path class="st43" d="M328,53.3c0-8.1,11.3-18.3,17.7-20.6c10.5-3.8,25.6-4.9,36.9-3.4c6.1,0.8,11.1,3.1,16.2,6.6
			c4.4,3,8.6,7.9,12.9,10c1.2-7.7-9.1-16.1-15-19.6c-9.3-5.5-24.7-8.4-35.3-5.7c-6.8,1.8-17.5,0.7-27.3,10.3
			C329.7,35.5,324.6,44.8,328,53.3z"/>
		<g>
			<g>
				<path class="st38" d="M404.9,174.5c1-5.5,1-13.3-0.9-18.7c-0.5-1.4-1.6-6.8-4-4.1c-1.4,1.5-0.7,6.7-0.9,8.8
					c-0.2,1.7-1.1,3.7-1,5.4c0.2,2.8,3,4.8,3.6,7.4"/>
				<path class="st40" d="M398.5,198.2c-4.8-1.2-18.6-7-22.7-9.5c-3.3-2.1-6.3-8.5-8.5-11.9c-2.8-4.2-5-8.7-6.9-13.4
					c-1.5-3.6-2.8-8.1-1-8.3c3.6-0.7,6,8.2,7.5,10.7c2.6,4.3,3.6,5.1,6.5,5.9c-2.1-5.9-3.9-10.8-7.3-18.7c-0.9-2.2-5-10-0.3-9.2
					c1.5,0.3,1.2,0.9,2.1,2c2.2,2.8,9.9,20.6,13.2,24.5c-2.1-8-10.7-21-14.2-28.4c-0.8-1.7-0.3-5.3,3.8-2.2
					c1.5,1.1,14.9,21.2,17.9,23.9c3.9-5.8-12.5-17.7-12.9-18.3c-3.2-4.3-2.4-8.3,1-5.9c1.3,0.9,22.2,18.2,22.9,20.2
					c2.2,6.3,9.5,25.8,10.5,34.6C408.2,195.7,400.5,196.3,398.5,198.2z"/>
			</g>
			<path class="st40" d="M395,195.8c10.9,14.3,32.8,62.5,38.4,71.6c1.7,2.7,25.6,13.9,28.2,6.6c3-8.6,2.1-23.1-3.3-31.6
				c-11-17.2-24.7-24.2-37.6-40.3c-3.7-4.6-7.4-9-11.2-13.5c-3.8-4.4-5.7-7.8-11.7-3.6"/>
		</g>
		<g>
			<g>
				<path class="st38" d="M339.1,172c-1.4-5-1.9-12.1-0.6-17.2c0.3-1.4,1-6.4,3.4-4.1c1.4,1.3,1.1,6.1,1.5,8
					c0.3,1.5,1.3,3.4,1.3,4.9c0,2.6-2.4,4.6-2.8,7"/>
				<path class="st40" d="M346.7,193.3c4.3-1.5,16.5-7.8,20.1-10.4c2.9-2.1,5.2-8.2,7-11.5c2.2-4.1,3.9-8.3,5.4-12.8
					c1.1-3.5,1.9-7.7,0.3-7.7c-3.4-0.4-4.9,8-6.1,10.3c-2.1,4.1-3,5-5.5,5.9c1.5-5.6,2.7-10.2,5.3-17.7c0.7-2.1,3.9-9.6-0.4-8.5
					c-1.4,0.3-1.1,0.9-1.8,2c-1.8,2.7-7.6,19.6-10.3,23.5c1.3-7.5,8.2-20.1,10.9-27.1c0.6-1.6-0.1-4.8-3.7-1.7
					c-1.3,1.1-12.1,20.6-14.6,23.2c-4-5,10.1-17.2,10.5-17.8c2.6-4.1,1.6-7.7-1.4-5.4c-1.1,0.9-19,18.3-19.5,20.3
					c-1.6,6-6.8,24.3-7.1,32.5C337.7,191.7,344.8,191.7,346.7,193.3z"/>
			</g>
			<path class="st40" d="M349.8,190.8c-8.9,13.9-25.4,59.7-29.9,68.5c-1.3,2.6-22.5,14.7-25.3,8.2c-3.4-7.7-3.6-21,0.7-29.2
				c8.8-16.5,20.9-24,31.5-39.7c3-4.5,6.1-8.8,9.3-13.2c3.2-4.3,4.7-7.6,10.5-4.2"/>
		</g>
		<linearGradient id="SVGID_1_" gradientUnits="userSpaceOnUse" x1="382.3777" y1="90.078" x2="369.37" y2="139.1889">
			<stop  offset="0" style="stop-color:#FFFFFF;stop-opacity:0"/>
			<stop  offset="1" style="stop-color:#FFFFFF"/>
		</linearGradient>
		<path class="st48" d="M358.9,130.4c2,0.2,3.5-0.7,5.2-1.6c3.3-1.7,12.5-3.8,12.6-8c0.2-6.2-11.5-5-13.9-9.8
			c-2.1-4.2-1.4-6.8,3-8.1c5.5-1.6,12-1.6,16.5-5.3c3.4-2.7,6.4-5.7,5.4-10.4c-0.7-3.7-4.8-10.1-8.8-10.5c7.1,0.1,14.8,0.2,18.3,7.8
			c2.8,6.2,0.9,11.4-5,14.2c-3.3,1.6-21.6,4.2-16.7,11.6c1.3,1.9,4.7,2.1,6.4,3.8c2.4,2.4,2.9,4.9,3.1,8.2
			C385.5,133.3,367.8,135.6,358.9,130.4z"/>
	</g>
	<rect y="276.6" class="st49" width="765" height="70.1"/>
	<g>
		<g>
			<ellipse class="st50" cx="637.1" cy="299.7" rx="45.8" ry="12.3"/>
			<ellipse class="st51" cx="637.9" cy="295.3" rx="56.7" ry="12.3"/>
		</g>
		<g>
			<path class="st52" d="M686.3,262.5c2.7-9.1,6.5-18.2,9.9-27.1c0.5-1.3,1.7-6.6,3.2-7.3c1.5-0.8,5.6,0.7,7.2,1.1
				c1.7,0.4,9.8,0.6,10.3,1.9c1.3,3.6-8.9,0.8-10.5,0.7c-1.2-0.1-3.2-1.1-4.2-0.8c-2.1,0.6-11.4,27.6-12.5,30.2
				C687.7,261.3,685.9,260.7,686.3,262.5z"/>
			<path class="st53" d="M665.1,260.5c10,0,38.6,0.6,42.4-0.5c1.2,8.2-6.2,60.4-6.4,64.4c-9.2,0.6-18.9,0.9-27.9,0.5
				C672.1,312.8,665,263.8,665.1,260.5z"/>
			<g>
				<path class="st45" d="M699.3,280.1c-5.2,4.5-7,10.1-2,15.2c2.7,2.8,5,5.6,4.5,9.7c-0.4,3.1-2.2,6.2-4.3,8.5
					c-2.2,2.4-4.2,3.6-7.1,5.1c-2.2,1.1-3.9,1.6-6.4,1.9c-2.2,0.3-4.2,0.7-6.3,1.3c-1.3,0.3-3.1,0.9-4.7,1.2
					c0.1,0.8,0.2,1.5,0.2,2.1c9,0.4,18.7,0.1,27.9-0.5c0.1-2.9,4-30.5,5.7-48.9C704.2,276.8,701.5,278.2,699.3,280.1z"/>
				<path class="st45" d="M689.5,307c4.4-5-1.1-10.7-4.5-14.2c-5.2-5.3-1.3-10.2,3.5-14.5c3-2.7,5.4-6.1,8.5-8.7
					c1.3-1.1,2.5-1.7,4.1-2.2c1.7-0.6,3.2-1,4.9-1.8c0.6-0.3,1.1-0.6,1.7-0.8c0.1-2.2,0.1-3.9-0.1-4.9c-3.8,1-32.4,0.5-42.4,0.5
					c-0.1,2.7,4.3,33.7,6.7,52.6c3.4-0.2,6.8-1.2,10.1-2.1C684.7,310.2,687.6,309.2,689.5,307z"/>
				<path class="st54" d="M684,320.4c2.4-0.3,4.2-0.8,6.4-1.9c2.9-1.5,4.9-2.7,7.1-5.1c2.1-2.3,3.9-5.3,4.3-8.5
					c0.5-4.1-1.8-6.9-4.5-9.7c-4.9-5.1-3.2-10.7,2-15.2c2.2-1.9,4.9-3.3,7.5-4.7c0.4-4.1,0.7-7.8,0.8-10.6c-0.6,0.1-1.1,0.5-1.7,0.8
					c-1.6,0.8-13.2,7.1-16.2,9.9c-4.7,4.3-9.9,12-4.7,17.3c3.4,3.5,8.9,9.1,4.5,14.2c-1.9,2.2-4.8,3.2-7.6,4
					c-3.3,0.9-6.6,1.9-10.1,2.1c0.5,3.9,0.9,7.2,1.2,9.7c1.6-0.2,3.4-0.8,4.7-1.2C679.8,321.2,681.8,320.7,684,320.4z"/>
			</g>
			<path class="st55" d="M662.9,256.5c0.6,1.4,0.1,4,0.3,5.7c15.6,0.8,31.5-0.3,47.2-0.7c0.1-1.7,0.1-3.5,0-5.2
				C695.6,255.2,680.7,257,662.9,256.5z"/>
		</g>
	</g>
	<g>
		<g>
			<ellipse class="st50" cx="342.9" cy="296.4" rx="45.8" ry="12.3"/>
			<ellipse class="st51" cx="343.7" cy="291.9" rx="56.7" ry="12.3"/>
			<g>
				<path class="st56" d="M311.7,287.3c2.1-5,12.8-5.2,17.8-4c5.2,1.2,10.3,4.5,10.7,9.2c0.7,7.4-8.6,7.8-15,7.8
					c-4.5,0-8.6,0.2-11.3-2.9C311.5,294.6,309.2,292.6,311.7,287.3z"/>
				<path class="st57" d="M319.4,290.4c-2.9-0.7-2-5.1,0.9-4.7c2.4,0.3,4.7,1.9,3.6,3.8C323.4,290.6,321.4,290.9,319.4,290.4z"/>
				<path class="st57" d="M327.2,296.6c0.3-1,1.8-2.8,3.1-2.6c1.1,0.2,1.7,1.9,2.3,2.6c-1.2,1.2-4.1,0.4-5.4,0.2"/>
				<path class="st57" d="M331.3,289.1c-1.5-1.9-2.2-0.2-2.3,1.3c1,0.1,3.3,0.4,3.1-1.1"/>
				<path class="st57" d="M337.3,290.8c-1.7-0.1-3.4,0.6-5.2,0.5c-0.4,1.7,2.5,4.7,4.2,4.6c2.1-0.1,2.7-3.7,2-5.2"/>
				<path class="st57" d="M316.3,291.8c-0.8-0.1-1.6-0.5-2.3-0.8c-0.3,2.2,2.7,3.7,3,1.3"/>
				<path class="st57" d="M324.7,293.3c-0.5-0.7-2,0.4-2,1.3c1,0.7,2-0.1,1.8-1.3"/>
				<path class="st57" d="M329.5,286.1c-0.1-0.9-1.1-1.6-2-1.6c-0.1,0.5-0.1,1.2,0,1.6c0.7,0.3,1.6,0.6,2-0.3"/>
			</g>
			<g>
				<path class="st58" d="M372.5,278.5c-2.1-5-12.8-5.2-17.8-4c-5.2,1.2-10.3,4.5-10.7,9.2c-0.7,7.4,8.6,7.8,15,7.8
					c4.5,0,8.6,0.2,11.3-2.9C372.7,285.8,375,283.8,372.5,278.5z"/>
				<path class="st57" d="M352.6,283.9c0.4-2-4.1-4.3-4.7-2.5c-0.6,1.5,0.1,3.7,2.3,4.3C351.3,286.1,352.3,285.2,352.6,283.9z"/>
				<path class="st57" d="M357,287.8c-0.3-1-1.8-2.8-3.1-2.6c-1.1,0.2-1.7,1.9-2.3,2.6c1.2,1.2,4.1,0.4,5.4,0.2"/>
				<path class="st57" d="M353.2,280c0.9-1.1,1.3-0.1,1.3,0.8c-0.6,0-1.9,0.2-1.8-0.7"/>
				<path class="st57" d="M356.3,280.4c0.9-0.1,1.7,0.5,2.6,0.4c0.2,1.5-1.2,4.1-2.1,4c-1-0.1-1.3-3.2-1-4.5"/>
				<path class="st57" d="M367.9,278.7c0,0.9-0.7,1.7-0.7,2.5c-1.5,0.1-3.9-1.6-3.8-2.5c0.2-1,3.3-1,4.6-0.5"/>
				<path class="st57" d="M362.5,275.5C362.5,275.5,362.5,275.5,362.5,275.5c0,0.8-1,1.2-1.6,0.7c-0.3-0.2-0.6-0.5-0.6-0.7
					c0.1-0.5,1.6-0.5,2.2-0.3"/>
				<path class="st57" d="M367.9,283c0.8-0.1,1.6-0.5,2.3-0.8c0.3,2.2-2.7,3.7-3,1.3"/>
				<path class="st57" d="M359.5,284.5c0.5-0.7,2,0.4,2,1.3c-1,0.7-2-0.1-1.8-1.3"/>
				<path class="st57" d="M354.7,277.3c0.1-0.9,1.1-1.6,2-1.6c0.1,0.5,0.1,1.2,0,1.6c-0.7,0.3-1.6,0.6-2-0.3"/>
			</g>
			<g>
				<path class="st58" d="M354.6,290.6c-2.1-5-12.8-5.3-17.8-4c-5.2,1.2-10.3,4.5-10.7,9.2c-0.7,7.4,8.6,7.8,15,7.8
					c4.5,0,8.6,0.2,11.3-2.9C354.8,297.9,357.1,295.9,354.6,290.6z"/>
				<path class="st57" d="M348.5,299.9c0.2-1.1-2.3-2.4-2.7-1.4c-0.3,0.9,0.1,2.1,1.3,2.5C347.7,301.1,348.3,300.6,348.5,299.9z"/>
				<path class="st57" d="M337.8,298.6c-0.5-1.6-2.7-4.2-4.6-3.8c-1.6,0.3-2.5,2.8-3.4,3.9c1.7,1.7,6.1,0.6,8,0.2"/>
				<path class="st57" d="M335.3,292c0.9-1.1,1.3-0.1,1.3,0.8c-0.6,0-1.9,0.2-1.8-0.7"/>
				<path class="st57" d="M339.1,291.2c0.7-0.1,1.4,0.4,2.1,0.4c0.2,1.2-1,3.3-1.7,3.2c-0.8-0.1-1.1-2.6-0.8-3.6"/>
				<path class="st57" d="M350,290.8c0,0.9-0.7,1.7-0.7,2.5c-1.5,0.1-3.9-1.6-3.8-2.5c0.2-1,3.3-1,4.6-0.5"/>
				<path class="st57" d="M344.6,287.6C344.6,287.6,344.6,287.6,344.6,287.6c0,0.8-1,1.2-1.6,0.7c-0.3-0.2-0.6-0.5-0.6-0.7
					c0.1-0.5,1.6-0.5,2.2-0.3"/>
				<path class="st57" d="M350,295.1c0.8-0.1,1.6-0.5,2.3-0.8c0.3,2.2-2.7,3.7-3,1.3"/>
				<path class="st57" d="M341.3,297c-0.6-2,3.8-3.7,5.6-2.3c0.1,3.1-3.1,4.2-5.3,1.9"/>
				<path class="st57" d="M339.9,301.6c0.1-0.9,1.1-1.6,2-1.6c0.1,0.5,0.1,1.2,0,1.6c-0.7,0.3-1.6,0.6-2-0.3"/>
			</g>
			<g>
				<path class="st56" d="M383.7,287.2c-2.8-4.7-13.4-3.2-18.2-1.3c-4.9,2-9.5,6-9.2,10.7c0.4,7.4,9.7,6.4,16,5.4
					c4.5-0.7,8.5-1.1,10.7-4.6C385,294.4,387,292.1,383.7,287.2z"/>
				<path class="st57" d="M376.5,291.4c2.8-1.1,1.2-5.4-1.6-4.5c-2.3,0.7-4.3,2.6-3,4.3C372.6,292.2,374.7,292.2,376.5,291.4z"/>
				<path class="st57" d="M369.8,298.8c-0.5-1-2.3-2.5-3.4-2.1c-1,0.4-1.3,2.1-1.9,2.9c1.3,1,4.1-0.3,5.3-0.7"/>
				<path class="st57" d="M364.6,292c1.2-2.2,2.2-0.5,2.5,0.9c-0.9,0.2-3.2,0.9-3.3-0.6"/>
				<path class="st57" d="M358.9,294.6c1.7-0.3,3.5,0.1,5.2-0.3c0.7,1.6-1.7,5-3.4,5.2c-2.1,0.2-3.2-3.3-2.8-4.8"/>
				<path class="st57" d="M379.8,292.3c0.8-0.2,1.5-0.7,2.2-1.2c0.6,2.1-2.1,4-2.8,1.8"/>
				<path class="st57" d="M371.8,295.1c0.4-0.7,2.1,0.1,2.2,1c-0.9,0.9-2,0.2-2-1"/>
				<path class="st57" d="M365.9,288.7c0-0.9,0.8-1.8,1.7-1.9c0.2,0.5,0.3,1.1,0.3,1.6c-0.7,0.4-1.5,0.9-2,0"/>
			</g>
		</g>
		<g>
			<g>
				<path class="st0" d="M427.5,260.2c0-6.5,0.5-10.7,3.8-12.5c3.4-1.9,7.6,0,8.7,3.7c0.8,2.7,1.3,5.2,1.2,8.7
					c-4.1,0.2-8.3,0.1-12.5,0.1"/>
				<path class="st0" d="M402.8,287.4c-3.1,0-7.3,0.8-8.6-2.4c-1-2.5-1.1-6-1.2-8.7c-0.1-2.2,0.1-6.1-1.1-7.9
					c-1.5-2.2-2.9,0.2-4.9,0c0.3,1.5,1.4,3,1.8,4.6c0.4,1.5,0.3,3.1,0.3,4.7c0,3.9,0,7.9,0,11.8c0,4,2.7,7.1,5.9,9.4
					c1.8,1.3,8.1,3.1,7.3-1.3"/>
				<path class="st0" d="M459.5,269.6c4.7-2.5,7.1-3.1,11.7-0.4c4.3,2.5,5.1,8.1,6.2,12.6c1.1,4.8,2.5,11.5-0.1,15.9
					c-2.5,4.2-7.7,5.2-12.3,4.7c-0.1-1.6,0-3.2,0-4.8c4.8-0.6,7.3-1.1,8.4-5.9c0.8-3.7,1.1-8.6-0.5-12.3c-1.5-3.4-4.3-5.7-8-5.3
					c-0.7,0.1-2.3,0.8-3,0.6C460,274.2,460.4,272.5,459.5,269.6z"/>
				<path class="st54" d="M410.7,264.6c-2.6,3-5.6,4.9-7.2,8.8c-1.4,3.4-2,6.9-2.4,10.6c-0.7,6.3-2.3,16.4,1.4,21.7
					c4.4,6.3,9.8,8.9,16.7,9.9c8,1.2,16.8,0.7,24.9,0.4c7.7-0.3,16.6-1.5,21.5-9.2c1.9-2.9,1.6-7.1,1.6-10.6c0-4.9-0.2-9.3-0.9-14
					c-0.8-5.8-4.2-12.5-7.9-16.5c-2.1-2.4-4.5-2.7-7.5-2.8c-8.9,0-17.9-0.7-26.7-0.5"/>
				<path class="st0" d="M432.5,256c-4.2,0-7.8,0.2-11.8,1.8c-2.3,0.9-11.2,3.4-10.6,7.6c0.8,5.2,25.7,3.1,29.2,2.9
					c5.3-0.3,10.4-0.9,15.4-1.6c2.6-0.4,3.6-0.2,3.2-3.1C457.7,261.2,441.4,254.8,432.5,256z"/>
			</g>
			<g>
				<defs>
					<path id="SVGID_2_" d="M410.7,264.6c-2.6,3-5.6,4.9-7.2,8.8c-1.4,3.4-2,6.9-2.4,10.6c-0.7,6.3-2.3,16.4,1.4,21.7
						c4.4,6.3,9.8,8.9,16.7,9.9c8,1.2,16.8,0.7,24.9,0.4c7.7-0.3,16.6-1.5,21.5-9.2c1.9-2.9,1.6-7.1,1.6-10.6c0-4.9-0.2-9.3-0.9-14
						c-0.8-5.8-4.2-12.5-7.9-16.5c-2.1-2.4-4.5-2.7-7.5-2.8c-8.9,0-17.9-0.7-26.7-0.5"/>
				</defs>
				<clipPath id="SVGID_3_">
					<use xlink:href="#SVGID_2_"  style="overflow:visible;"/>
				</clipPath>
				<g class="st59">
					<g>
						<path class="st0" d="M422.2,290.3c-1.6-4.3-0.7-10.7,5.1-11.1c5.7-0.4,2.6,6.6,1.8,9.4c2.2-3.2,8.9-3.5,9.7,0.7
							c0.8,4.2-3.5,4-6.7,3.9c3.2,1.4,7.2,5.9,4.1,9.3c-3.3,3.7-6.6-0.8-8.1-3.6c0.5,4.6-3.4,5.9-7.1,5.6c-2.5-0.2-4.4-1-3.9-3.8
							c0.3-2.1,2.3-3,3.6-4.5c-3.4-0.1-7.7-0.6-6.5-5.5C414.9,287.5,419.7,288.3,422.2,290.3z"/>
						<path class="st60" d="M428.2,293.7c0,1-0.8,1.9-1.9,1.9c-1,0-1.9-0.8-1.9-1.9c0-1,0.8-1.9,1.9-1.9
							C427.4,291.9,428.2,292.7,428.2,293.7z"/>
					</g>
					<g>
						<path class="st0" d="M451.2,306.8c1.1-4.4,5.6-9.1,10.5-6.2c4.9,2.9-1.7,6.9-3.9,8.7c3.7-1.3,9.3,2.3,7.5,6.1
							c-1.8,3.9-5.2,1.3-7.7-0.6c1.8,3,2.5,9-2,10c-4.8,1.1-5-4.5-4.6-7.6c-2.2,4-6.1,2.9-9.1,0.5c-2-1.6-3-3.3-1.1-5.4
							c1.4-1.5,3.6-1.1,5.5-1.7c-2.7-2-5.9-4.9-2.2-8.2C446.7,300.4,450.3,303.8,451.2,306.8z"/>
						<path class="st60" d="M454.2,313.1c-0.6,0.8-1.7,1-2.6,0.5c-0.8-0.6-1-1.7-0.5-2.6c0.6-0.8,1.7-1,2.6-0.5
							C454.5,311.1,454.7,312.2,454.2,313.1z"/>
					</g>
					<g>
						<path class="st0" d="M445.4,276c0.6-2.2,2.8-4.6,5.2-3.1c2.5,1.5-0.8,3.5-1.9,4.4c1.8-0.7,4.6,1.1,3.8,3.1
							c-0.9,1.9-2.6,0.6-3.9-0.3c0.9,1.5,1.2,4.5-1,5c-2.4,0.6-2.5-2.2-2.3-3.8c-1.1,2-3.1,1.4-4.5,0.3c-1-0.8-1.5-1.7-0.5-2.7
							c0.7-0.8,1.8-0.5,2.8-0.8c-1.3-1-3-2.5-1.1-4.1C443.2,272.8,444.9,274.5,445.4,276z"/>
						<path class="st60" d="M446.9,279.1c-0.3,0.4-0.9,0.5-1.3,0.2c-0.4-0.3-0.5-0.9-0.2-1.3c0.3-0.4,0.9-0.5,1.3-0.2
							S447.2,278.7,446.9,279.1z"/>
					</g>
					<g>
						<path class="st0" d="M466.2,282c0.9-3.4,4.2-7,8-4.7c3.8,2.2-1.3,5.3-3,6.6c2.8-1,7.1,1.7,5.7,4.7c-1.3,2.9-4,1-5.9-0.5
							c1.4,2.3,1.9,6.8-1.5,7.6c-3.7,0.8-3.8-3.4-3.5-5.8c-1.7,3.1-4.7,2.2-6.9,0.4c-1.5-1.2-2.3-2.5-0.8-4.1
							c1.1-1.2,2.8-0.8,4.2-1.3c-2-1.5-4.5-3.7-1.7-6.2C462.8,277.1,465.5,279.7,466.2,282z"/>
						<path class="st60" d="M468.5,286.8c-0.4,0.6-1.3,0.8-2,0.4c-0.6-0.4-0.8-1.3-0.4-2c0.4-0.6,1.3-0.8,2-0.4
							C468.8,285.3,468.9,286.2,468.5,286.8z"/>
					</g>
					<g>
						<path class="st0" d="M408.9,275.2c3.3,0.4,7.1,3.2,5.4,7c-1.7,3.8-5.1-0.6-6.6-2c1.3,2.5-0.8,6.9-3.7,6
							c-2.9-0.9-1.4-3.6-0.2-5.6c-2,1.6-6.2,2.6-7.3-0.5c-1.2-3.4,2.8-4,5.1-4c-3.1-1.2-2.6-4.1-1.2-6.5c1-1.6,2.1-2.5,3.8-1.2
							c1.2,0.9,1.1,2.5,1.7,3.8c1.2-2.1,3-4.7,5.7-2.3C413.1,271.4,411,274.3,408.9,275.2z"/>
						<path class="st60" d="M404.7,277.9c-0.7-0.3-0.9-1.2-0.6-1.8c0.3-0.7,1.2-0.9,1.8-0.6c0.7,0.3,0.9,1.2,0.6,1.8
							C406.1,278,405.3,278.2,404.7,277.9z"/>
					</g>
					<g>
						<path class="st0" d="M410.1,310.5c3.3,0.4,7.1,3.2,5.4,7c-1.7,3.8-5.1-0.6-6.6-2c1.3,2.5-0.8,6.9-3.7,6
							c-2.9-0.9-1.4-3.6-0.2-5.6c-2,1.6-6.2,2.6-7.3-0.5c-1.2-3.4,2.8-4,5.1-4c-3.1-1.2-2.6-4.1-1.2-6.5c1-1.6,2.1-2.5,3.8-1.2
							c1.2,0.9,1.1,2.5,1.7,3.8c1.2-2.1,3-4.7,5.7-2.3C414.4,306.8,412.2,309.6,410.1,310.5z"/>
						<path class="st60" d="M405.9,313.2c-0.7-0.3-0.9-1.2-0.6-1.8c0.3-0.7,1.2-0.9,1.8-0.6c0.7,0.3,0.9,1.2,0.6,1.8
							C407.4,313.3,406.5,313.6,405.9,313.2z"/>
					</g>
				</g>
			</g>
		</g>
	</g>
	<g>
		<g>
			<ellipse class="st19" cx="170.4" cy="301.7" rx="40.7" ry="11.7"/>
			<ellipse class="st61" cx="172" cy="301.2" rx="26.8" ry="7.7"/>
			<path class="st19" d="M145.4,268.5c-4.1,11-3.1,30.1,9.5,34.5c10.1,3.5,22.4,3,32-0.8c10.3-4.1,9.9-14.2,9.9-24.4
				c0-3.9,1-7.9-1.7-10.5c-2.7-2.5-8.8-2.5-12.1-2.8c-6.7-0.6-13.5-0.5-20.3-0.5C154.4,264,145.7,264.8,145.4,268.5"/>
			<ellipse class="st61" cx="171.5" cy="269.9" rx="22.5" ry="4.5"/>
			<g>
				<path class="st45" d="M171.5,265.4c-12.4,0-22.5,2-22.5,4.5c0,0.7,0.7,1.3,2,1.8c3.4-1,7.2-1.4,10.6-1.7c5-0.5,9.9-0.9,14.9-0.7
					c4.3,0.2,8.8,1.2,13,2.2c0.5,0.1,1.3,0.2,1.9,0.4c1.7-0.6,2.6-1.3,2.6-2.1C194,267.4,183.9,265.4,171.5,265.4z"/>
				<path class="st62" d="M176.5,269.3c-5-0.2-9.9,0.2-14.9,0.7c-3.5,0.4-7.2,0.7-10.6,1.7c3.5,1.5,11.4,2.6,20.5,2.6
					c8.6,0,16.1-1,19.9-2.4c-0.7-0.2-1.4-0.3-1.9-0.4C185.3,270.5,180.8,269.5,176.5,269.3z"/>
			</g>
			<path class="st19" d="M195.4,273.7c1.9-1.2,5.5-0.5,7.2,0.7c2.3,1.6,2.7,3.9,2.8,6.5c0.1,2.9,0.4,6.4-2.2,8.1
				c-2.8,1.8-4.9,2.1-8.1,1.9c-0.1-0.9,0-1.9,0-2.8c3.4-0.1,6.8-2.1,7-5.8c0.1-2,0.3-4.2-2-4.7c-1.6-0.4-3,0.5-4.5,0.3
				C195.2,277,195.6,276.2,195.4,273.7z"/>
		</g>
		<linearGradient id="SVGID_4_" gradientUnits="userSpaceOnUse" x1="183.6508" y1="230.3229" x2="170.6431" y2="279.4338">
			<stop  offset="0" style="stop-color:#FFFFFF;stop-opacity:0"/>
			<stop  offset="1" style="stop-color:#FFFFFF"/>
		</linearGradient>
		<path class="st63" d="M160.2,270.6c2,0.2,3.5-0.7,5.2-1.6c3.3-1.7,12.5-3.8,12.6-8c0.2-6.2-11.5-5-13.9-9.8
			c-2.1-4.2-1.4-6.8,3-8.1c5.5-1.6,12-1.6,16.5-5.3c3.4-2.7,6.4-5.7,5.4-10.4c-0.7-3.7-4.8-10.1-8.8-10.5c7.1,0.1,14.8,0.2,18.3,7.8
			c2.8,6.2,0.9,11.4-5,14.2c-3.3,1.6-21.6,4.2-16.7,11.6c1.3,1.9,4.7,2.1,6.4,3.8c2.4,2.4,2.9,4.9,3.1,8.2
			C186.7,273.5,169.1,275.9,160.2,270.6z"/>
	</g>
</g>
</svg>
