<?xml version="1.0" encoding="utf-8"?>
<!-- Generator: Adobe Illustrator 24.0.2, SVG Export Plug-In . SVG Version: 6.00 Build 0)  -->
<svg version="1.1" id="Layer_1" xmlns="http://www.w3.org/2000/svg" xmlns:xlink="http://www.w3.org/1999/xlink" x="0px" y="0px"
	 viewBox="0 0 1440 527" style="enable-background:new 0 0 1440 527;" xml:space="preserve">
<style type="text/css">
	.st0{fill:#F8D1DF;}
	.st1{clip-path:url(#SVGID_2_);}
	.st2{fill:#5A0650;}
	.st3{fill:#632914;}
	.st4{fill:#FCBA8B;}
	.st5{fill:#FFFFFF;}
	.st6{fill:#CA5919;}
	.st7{fill:#0E0E10;}
	.st8{fill:none;stroke:#D58E54;stroke-width:4;stroke-linejoin:round;stroke-miterlimit:10;}
	.st9{fill:#FFE8C5;}
	.st10{fill:#EF8F50;}
	.st11{fill:#D2F5F5;}
	.st12{fill:#FFBB55;}
	.st13{fill:none;stroke:#FFF0BD;stroke-width:6;stroke-linejoin:round;stroke-miterlimit:10;}
	.st14{fill:#93E6B8;}
	.st15{fill:#973309;}
	.st16{fill:#E5F8BC;}
	.st17{fill:#DD9E86;}
	.st18{fill:#99060C;}
	.st19{fill-rule:evenodd;clip-rule:evenodd;fill:#DD9E86;}
	.st20{fill:none;stroke:#BE724D;stroke-width:4;stroke-linejoin:round;stroke-miterlimit:10;}
	.st21{fill:#CEF9E9;}
	.st22{fill:#25BE7C;}
	.st23{fill:#179443;}
	.st24{fill-rule:evenodd;clip-rule:evenodd;fill:#09190F;}
	.st25{fill:none;stroke:#03401B;stroke-width:2;stroke-linejoin:round;stroke-miterlimit:10;}
	.st26{fill:#03401B;}
	.st27{opacity:0.5;fill:#FFFFFF;enable-background:new    ;}
</style>
<path class="st0" d="M1440,439.2V527H0v-85.6C103.6,363.2,387.5,307,721.5,307C1052.3,307,1334,362.1,1440,439.2z"/>
<g>
	<defs>
		<rect id="SVGID_1_" x="88" y="-29" width="472" height="481"/>
	</defs>
	<clipPath id="SVGID_2_">
		<use xlink:href="#SVGID_1_"  style="overflow:visible;"/>
	</clipPath>
	<g class="st1">
		<path class="st2" d="M459.7,176.9c-41.8-9.7-88-12-97.3-11.2l-92.7,4.7c-66.7,11-143.2,70.8-164.6,113.7
			c-43.3,86.5-1.7,158.1,92.6,159.7c26.5,0.5,28.9-44.6,24.1-70.7c60.2-17.1,133.1-29.5,213.5-35.6c41.1,32.3,124.5,7.3,124.5-53.3
			C559.8,226.4,501.6,186.6,459.7,176.9z"/>
		<path class="st3" d="M392.8,86.6c8.6,29.4-10.4,37.8-21,38.3c-24.1,15.8-77,46.2-95.5,40.9c-23.2-6.6-25.9-14.8-27-32.7
			c-39.4-19.9-5.5-43.7-16.8-59.1c-19.1-26.1,24.4-60.5,50-47.7c5.7-28.6,67-32.7,76.9-3.5C386.9,20.7,408,59,392.8,86.6z"/>
		<path class="st4" d="M377.5,87.1c14.8,44.3,0.2,97.5-32.2,90.8c-8.3,19.7,25.7,49.5-17,49.5c-25.9,0-48.6-16.4-63-29.2
			c-5.6-5-5.4-13.8-0.7-19.6c8.8-10.9,17.7-24.3,18.4-41.2c-23.6,1.2-27.6-21.5-20.6-32.9c8.6-13.8,19.3,0.4,25.6,8.8
			c1.6,2.1,5.9,1.8,7.4-0.4c2.3-3.1,4.9-7.6,4.7-14.2c-0.2-10.3,15.9-4.5,24.4-17.1c9,2.4,33-3.7,36.2-25.2
			C366.2,60.8,371.8,70.1,377.5,87.1z"/>
		<path class="st5" d="M276,300.1l0-2c0,0,14.9-2.8,20.9-7c5.2-3.7,8.8-6.9,13.3-6.5c5.8-5,49.8-52.7,63.2-59.4
			c13.4-6.7,18.5-1.1,10.3,8.9c-8.3,10-58.5,40.8-65.7,57.6c-4.5,10.4-6.8,16.6-43.2,20l0.1-2.1c0,0,21-3.8,20.6-6
			c0-1-19.5,2.4-19.5,2.4l0.1-2.3c0,0,18.6-4.1,18.4-5.4C294.3,297,276,300.1,276,300.1z"/>
		<path class="st4" d="M409.6,260.6c6,5,14.7,3.6,22.8,2.2c2.8-0.5,5.4,1.1,6.1,3.8c2.1,9,5.6,29.3-2.5,45.4
			c-2.8,5.6-17-5.5-23.3-2.4c-16.6,9-41.2-4.9-44.1-9c-2.8-4.1-4.5-4.1-13.8-3.3c-9.4,0.8-12.2-6.9-5.7-12.2
			c-11.4,3.3-15.5-1.6-13.4-5.3c2-3.7,23.2-9.4,33-11.4c-2.8-3.7-16.7-1.8-20.3,0c-0.8,4.5-5.3,9-12.6,8.5c-3.7,0-1.6-12.6,1.6-17.9
			c3.3-5.3,20.8-6.1,26.9-8.1c-4.5-4.9-10.2-1.6-15.1,0c-4.9,1.6-11.4,3.3-11.8,0c-0.4-6.1,11.8-11.4,21.6-15.9
			c9.7-4.5,23.5,6,29.2,8.5c0,0,0.1,0,0.1,0C402.4,246.9,402.3,254.8,409.6,260.6z"/>
		<path class="st6" d="M372.7,149c-7.3-3.1-14.6,2.3-15.4,2.3c-3.2-3.1-10.8-5.8-15.4-3.9c-1.6,10.1,9.7,13.2,15.4,13.2
			C362.9,160.6,368.6,157.5,372.7,149z"/>
		<path class="st7" d="M372.4,109c3.5-0.8,7.4-0.5,10,2.1l-2.3,2.2c-0.3-0.3-6.2-3.1-12.7,1.9l-2.6-1.9
			C367.1,110.3,368.9,109.8,372.4,109z"/>
		<path class="st7" d="M333.8,110.5c-3.6,0.1-7.3,1.4-9.1,4.6l2.8,1.5c0.2-0.4,5-5,14.9-0.4l2-2.5
			C341.4,111.5,337.4,110.4,333.8,110.5z"/>
		<path class="st7" d="M364.1,98c1.1-0.8,13.7-5.9,19.9-1.3c1.7,1.2,3.3,2.4,2.4,5.9c-4.6-2.8-14.6-0.7-21.2,0.8
			C360.9,104.4,361.3,99.2,364.1,98z"/>
		<path class="st7" d="M344.5,98c-3.8-1.6-18.1-3.8-24.7,2c-2,1.8-3.7,5.3-2.4,8.5c5.2-2.7,17.7-5.9,25.2-4.5
			C349.6,105.4,347.4,98.9,344.5,98z"/>
		<path class="st4" d="M222.6,365.9c-11.3,6.4-14.7,3.5-22.8,2.2c-2.8-0.5-5.4,1.1-6.1,3.8c-2.1,9-5.6,29.3,2.5,45.4
			c2.8,5.6,17-5.5,23.3-2.4c8.5,4.1,23.6,4,31.7,2.6c1.8-0.3,4,0.7,5.5,1.8c4,3.1,12,6.1,12,7.4c0,1.7-1.9,8.1-7.2,4.8
			c-5.3-3.3-12.7,1.4-10.5,3.3c2.2,1.9,18.7,8.8,26.6,10.7c7.9,1.9,9.6-2.4,10.8-5.5c4.8-0.2,6.7-10.5,5.3-23.3
			c0.7,3.8,6.2,9.7,7.4,20.2s11.3,20,10.5,10.7c-0.7-9.3-2.9-33-7.9-39.5c-5-6.4-20.6-20.5-30.7-30
			C266.1,371.9,233.9,359.5,222.6,365.9z"/>
		<path class="st8" d="M360.7,120.8c0,0,6.6,10.7,4.1,16.1c-2.5,5.4-10,2.9-10,2.9"/>
	</g>
</g>
<path class="st9" d="M531,331c17.7,0,32,2.2,32,5c4,10,13,34.1,13,50.5c0,18-16,32.9-37.1,35.9c0,0-3.4,15.9-1.7,16.6
	c1.7,0.7,2.8,1.8,2.8,2.9c0,1-0.8,1.9-2.1,2.6c-1.3,0.7,4.9,8.4,14,9.3c9.1,0.9,15.1,2.4,15.1,4.1c0,2.8-16.1,5-36,5
	c-19.9,0-36-2.2-36-5c0-1.7,6-3.2,15.1-4.1c9.1-0.9,15.3-8.6,14-9.3c-1.3-0.7-2.1-1.6-2.1-2.6c0-1.1,1.1-2.2,2.8-2.9
	c1.7-0.7-1.7-16.6-1.7-16.6c-21.1-3-37.1-18-37.1-35.9c0-9.2,8.3-37.5,13-50.5C499,333.2,513.3,331,531,331z"/>
<path class="st10" d="M531.5,414c20.7,0,37.5-11.2,37.5-25c0-7.9-3.2-14.7-6-19h-64c-2.6,3.7-5,9.9-5,19
	C494,402.8,510.8,414,531.5,414z"/>
<ellipse class="st6" cx="531" cy="370" rx="32" ry="7"/>
<path class="st6" d="M775.5,268L775.5,268c-1.7,0-3.3,0.9-4.2,2.2c-1.3-1-3-1.4-4.6-0.8l0,0c-1.6,0.5-2.8,1.8-3.3,3.4
	c-1.5-0.6-3.3-0.4-4.7,0.6l0,0c-1.4,1-2.1,2.6-2.1,4.2c-1.6-0.1-3.2,0.7-4.2,2.1l0,0c-1,1.4-1.2,3.2-0.6,4.7
	c-1.6,0.4-2.9,1.6-3.4,3.3l0,0c-0.5,1.6-0.2,3.4,0.8,4.6c-1.3,0.9-2.2,2.4-2.2,4.2v0c0,1.7,0.9,3.3,2.2,4.2c-1,1.3-1.4,3-0.8,4.6
	l0,0c0.5,1.6,1.8,2.8,3.4,3.3c-0.6,1.5-0.4,3.3,0.6,4.7l0,0c1,1.4,2.6,2.1,4.2,2.1c-0.1,1.6,0.7,3.2,2.1,4.2l0,0
	c1.4,1,3.2,1.2,4.7,0.6c0.4,1.6,1.6,2.9,3.3,3.4l0,0c1.6,0.5,3.4,0.2,4.6-0.8c0.9,1.3,2.4,2.2,4.2,2.2h0c1.7,0,3.3-0.9,4.2-2.2
	c1.3,1,3,1.4,4.6,0.8l0,0c1.6-0.5,2.8-1.8,3.3-3.4c1.5,0.6,3.3,0.4,4.7-0.6l0,0c1.4-1,2.1-2.6,2.1-4.2c1.6,0.1,3.2-0.7,4.2-2.1l0,0
	c1-1.4,1.2-3.2,0.6-4.7c1.6-0.4,2.9-1.6,3.4-3.3l0,0c0.5-1.6,0.2-3.4-0.8-4.6c1.3-0.9,2.2-2.4,2.2-4.2v0c0-1.7-0.9-3.3-2.2-4.2
	c1-1.3,1.4-3,0.8-4.6l0,0c-0.5-1.6-1.8-2.8-3.4-3.3c0.6-1.5,0.4-3.3-0.6-4.7l0,0c-1-1.4-2.6-2.1-4.2-2.1c0.1-1.6-0.7-3.2-2.1-4.2
	l0,0c-1.4-1-3.2-1.2-4.7-0.6c-0.4-1.6-1.6-2.9-3.3-3.4l0,0c-1.6-0.5-3.4-0.2-4.6,0.8C778.8,268.9,777.2,268,775.5,268z"/>
<path class="st6" d="M661.5,257L661.5,257c-1.7,0-3.3,0.9-4.2,2.2c-1.3-1-3-1.4-4.6-0.8l0,0c-1.6,0.5-2.8,1.8-3.3,3.4
	c-1.5-0.6-3.3-0.4-4.7,0.6l0,0c-1.4,1-2.1,2.6-2.1,4.2c-1.6-0.1-3.2,0.7-4.2,2.1l0,0c-1,1.4-1.2,3.2-0.6,4.7
	c-1.6,0.4-2.9,1.6-3.4,3.3l0,0c-0.5,1.6-0.2,3.4,0.8,4.6c-1.3,0.9-2.2,2.4-2.2,4.2v0c0,1.7,0.9,3.3,2.2,4.2c-1,1.3-1.4,3-0.8,4.6
	l0,0c0.5,1.6,1.8,2.8,3.4,3.3c-0.6,1.5-0.4,3.3,0.6,4.7l0,0c1,1.4,2.6,2.1,4.2,2.1c-0.1,1.6,0.7,3.2,2.1,4.2l0,0
	c1.4,1,3.2,1.2,4.7,0.6c0.4,1.6,1.6,2.9,3.3,3.4l0,0c1.6,0.5,3.4,0.2,4.6-0.8c0.9,1.3,2.4,2.2,4.2,2.2h0c1.7,0,3.3-0.9,4.2-2.2
	c1.3,1,3,1.4,4.6,0.8l0,0c1.6-0.5,2.8-1.8,3.3-3.4c1.5,0.6,3.3,0.4,4.7-0.6l0,0c1.4-1,2.1-2.6,2.1-4.2c1.6,0.1,3.2-0.7,4.2-2.1l0,0
	c1-1.4,1.2-3.2,0.6-4.7c1.6-0.4,2.9-1.6,3.4-3.3l0,0c0.5-1.6,0.2-3.4-0.8-4.6c1.3-0.9,2.2-2.4,2.2-4.2v0c0-1.7-0.9-3.3-2.2-4.2
	c1-1.3,1.4-3,0.8-4.6l0,0c-0.5-1.6-1.8-2.8-3.4-3.3c0.6-1.5,0.4-3.3-0.6-4.7l0,0c-1-1.4-2.6-2.1-4.2-2.1c0.1-1.6-0.7-3.2-2.1-4.2
	l0,0c-1.4-1-3.2-1.2-4.7-0.6c-0.4-1.6-1.6-2.9-3.3-3.4l0,0c-1.6-0.5-3.4-0.2-4.6,0.8C664.8,257.9,663.2,257,661.5,257z"/>
<ellipse class="st11" cx="729" cy="350" rx="119" ry="23"/>
<ellipse class="st5" cx="729" cy="425" rx="61" ry="23"/>
<path class="st12" d="M720.2,383.8c4.9-0.4,9.6-1.5,14-3c10.1,16.9,28.6,28.3,49.8,28.3c32,0,58-26,58-58s-26-58-58-58
	c-11.4,0-23.1-4.2-31.9-11.5c-10.1-8.4-23-13.5-37.1-13.5c-14.2,0-27.1,5.1-37.2,13.5c-7.2,6-15.5,10.7-24.3,13.9
	c-22.5,8-38.5,29.4-38.5,54.7c0,32,26,58,58,58C692.4,408,709.6,398.4,720.2,383.8z"/>
<path class="st13" d="M808.5,373c2.7-8.2,4.7-26.1-8.5-32.5c-16.5-8-50.5-6.5-61.5-19.5s-32-35.3-54.5-23.3 M781.5,374
	c2.7-4.3,5.2-14.1-6-18.5c-14-5.5-44-0.5-55-17.5s-25.5-38-52-31.5 M648.7,318.5c-10.5,0.2-31,9.5-30.2,47.5 M722,378.5
	c-0.5-1-20.5-5.5-26-28c-6.2-25.2-38-21.5-41-1.5c-2.4,16,5,23.3,9,25 M774.7,402c26.7,0,48.3-21.5,48.3-48.1
	c0-26.6-21.6-48.1-48.3-48.1c-9.5,0-19.2-3.5-26.5-9.6c-8.4-7-19.1-11.1-30.9-11.1c-10.9,0-21,3.6-29,9.7
	c-7.4,5.6-15.8,10.3-24.4,13.9C646.3,315.8,634,333,634,353c0,26.6,21.6,48.1,48.3,48.1"/>
<g>
	<path class="st10" d="M752.1,281.5c-10.1-8.4-23-13.5-37.1-13.5c-14.2,0-27.1,5.1-37.2,13.5c-7.2,6-15.5,10.7-24.3,13.9
		c-10.9,3.9-20.3,10.9-27,20c9.5,11.6,43.4,34.7,103,34.7s91.7-23.1,100.2-34.7C819.1,301.7,802.6,293,784,293
		C772.6,293,760.9,288.8,752.1,281.5z"/>
</g>
<path class="st11" d="M729,373c65.7,0,119-10.3,119-23c0,44-53.3,86-119,86s-119-42-119-86C610,362.7,663.3,373,729,373z"/>
<path class="st5" d="M729,373c65.7,0,119-10.3,119-23c0,34-31.8,66.8-76.5,79.9c-67.2-1.4-122.4-29.1-133.4-65.1
	C659.9,369.8,692.5,373,729,373z"/>
<path class="st6" d="M706.5,303L706.5,303c-1.7,0-3.3,0.9-4.2,2.2c-1.3-1-3-1.4-4.6-0.8l0,0c-1.6,0.5-2.8,1.8-3.3,3.4
	c-1.5-0.6-3.3-0.4-4.7,0.6l0,0c-1.4,1-2.1,2.6-2.1,4.2c-1.6-0.1-3.2,0.7-4.2,2.1l0,0c-1,1.4-1.2,3.2-0.6,4.7
	c-1.6,0.4-2.9,1.6-3.4,3.3l0,0c-0.5,1.6-0.2,3.4,0.8,4.6c-1.3,0.9-2.2,2.4-2.2,4.2v0c0,1.7,0.9,3.3,2.2,4.2c-1,1.3-1.4,3-0.8,4.6
	l0,0c0.5,1.6,1.8,2.8,3.4,3.3c-0.6,1.5-0.4,3.3,0.6,4.7l0,0c1,1.4,2.6,2.1,4.2,2.1c-0.1,1.6,0.7,3.2,2.1,4.2l0,0
	c1.4,1,3.2,1.2,4.7,0.6c0.4,1.6,1.6,2.9,3.3,3.4l0,0c1.6,0.5,3.4,0.2,4.6-0.8c0.9,1.3,2.4,2.2,4.2,2.2h0c1.7,0,3.3-0.9,4.2-2.2
	c1.3,1,3,1.4,4.6,0.8l0,0c1.6-0.5,2.8-1.8,3.3-3.4c1.5,0.6,3.3,0.4,4.7-0.6l0,0c1.4-1,2.1-2.6,2.1-4.2c1.6,0.1,3.2-0.7,4.2-2.1l0,0
	c1-1.4,1.2-3.2,0.6-4.7c1.6-0.4,2.9-1.6,3.4-3.3l0,0c0.5-1.6,0.2-3.4-0.8-4.6c1.3-0.9,2.2-2.4,2.2-4.2v0c0-1.7-0.9-3.3-2.2-4.2
	c1-1.3,1.4-3,0.8-4.6l0,0c-0.5-1.6-1.8-2.8-3.4-3.3c0.6-1.5,0.4-3.3-0.6-4.7l0,0c-1-1.4-2.6-2.1-4.2-2.1c0.1-1.6-0.7-3.2-2.1-4.2
	l0,0c-1.4-1-3.2-1.2-4.7-0.6c-0.4-1.6-1.6-2.9-3.3-3.4l0,0c-1.6-0.5-3.4-0.2-4.6,0.8C709.8,303.9,708.2,303,706.5,303z"/>
<path class="st14" d="M723.4,293.4c1.1-3.9,0.2-8.3-2.8-11.3c-3-3-7.4-4-11.3-2.8c-1.1,3.9-0.2,8.3,2.8,11.3
	C715.1,293.6,719.4,294.5,723.4,293.4z"/>
<path class="st14" d="M729,290.2c3.5,2.1,8,2.3,11.7,0.2c3.7-2.1,5.7-6.1,5.7-10.2c-3.5-2.1-8-2.3-11.7-0.2
	C731,282.1,728.9,286.1,729,290.2z"/>
<path class="st14" d="M737.2,312.3c2.1-3.5,2.3-8,0.2-11.7c-2.1-3.7-6.1-5.7-10.2-5.7c-2.1,3.5-2.3,8-0.2,11.7
	C729.1,310.4,733.1,312.4,737.2,312.3z"/>
<circle class="st15" cx="665" cy="278" r="3"/>
<circle class="st15" cx="646" cy="285" r="3"/>
<circle class="st15" cx="652" cy="275" r="3"/>
<circle class="st15" cx="719" cy="321" r="3"/>
<circle class="st15" cx="721" cy="331" r="3"/>
<circle class="st15" cx="771" cy="281" r="3"/>
<circle class="st15" cx="784" cy="279" r="3"/>
<circle class="st15" cx="704" cy="327" r="3"/>
<path class="st16" d="M1354.4,321.1c-15.3-49.6-140.1-115.6-163-125.3c-76.5-20.8-128.9,41.4-151.8,77.1c-5.8,9.1-21.2,9.4-28.2,1.2
	c-15.2-17.5-40.7-35.8-71.5-13.1c-41,30.2,27.4,126.5,53.9,141c21.2,11.6,90.6-17.3,99.8-59.6c38.6,5.6,55.5,6.8,113.1,23
	c-5,8.9-3,34.4,6.3,44.5c0.8,0.9,1.9,1.5,3,2c24.1,10.5,51.1,5.8,67.2,5C1327.4,413.8,1369.7,370.6,1354.4,321.1z"/>
<path class="st7" d="M1134.8,44.9c-43.1-11.8-51.2,14.2-49.8,28.6c-22.9-15.6-44.9,33.6-44.9,99.9s40,70.4,67.8,67.1
	c27.8-3.3,53.8-64.6,72.7-31.4c4.1,7.1,34.2,12.2,48.3,11.3c19.4-1.3,29.5,28.5,37.4,0c16.5-59.2-53.2-69-49.1-114.8
	S1188.6,59.6,1134.8,44.9z"/>
<path class="st17" d="M1073.9,118.9c-14.6,43.9-0.2,96.5,31.8,89.9c8.3,19.5-25.4,49,16.8,49c25.7,0,48.1-16.3,62.3-28.9
	c5.6-4.9,5.3-13.6,0.7-19.4c-8.7-10.8-17.5-24.1-18.2-40.8c7.6,0,19.4-3,13.6-14.9c-5.7-11.8-12.9-4.7-17.3-0.7
	c-0.5,0.5-1.2,0.7-1.8,0.7c-6.4,0.1-40.8-0.8-56-35C1088.9,81.2,1092.3,64.1,1073.9,118.9z"/>
<path class="st18" d="M1081.9,180.7c0.2-1.8,7.8-2.4,9.6,1.9c2.2-4.2,14.7-6.2,20.1-2.7c-6.4,6.2-5.7,12.7-19.2,12.7
	c-5.2,0-7.4-5.3-8-8.2C1083.8,183.6,1081.7,182.4,1081.9,180.7z"/>
<path class="st3" d="M1078.7,140.6c-3.5-0.8-7.4-0.5-10,2.1l2.3,2.2c0.9-0.9,2.1-1.4,3.7-1.5c-1,0.7-1.6,1.9-1.6,3.2
	c0,2.2,1.8,4,4,4c2.2,0,4-1.8,4-4c0-0.7-0.2-1.4-0.5-2c1.9,0.9,3.7,2.2,4.9,3.8l2.6-2C1085.8,143.6,1082.2,141.4,1078.7,140.6z"/>
<path class="st3" d="M1114.1,152.3c-2.2,0-4-1.8-4-4c0-1.3,0.6-2.5,1.6-3.2c-1.5,0.1-2.8,0.6-3.6,1.5l-2.3-2.2c2.6-2.6,6.5-3,10-2.1
	c3.5,0.8,7.1,3,9.4,5.9l-2.5,2c-1.2-1.5-2.9-2.9-4.9-3.8c0.3,0.6,0.5,1.2,0.5,2C1118.1,150.5,1116.3,152.3,1114.1,152.3z"/>
<path class="st7" d="M1084.4,129c-1.3-0.9-13.4-7.5-19.4,5.4c4.5-2.8,11.7-1.5,18.3,0C1089.4,135.7,1085.8,129.9,1084.4,129z"/>
<path class="st7" d="M1109.6,128.9c5-2.1,17-0.9,23.8,11.3c-5.1-2.6-14.4-6.7-21.9-5.3C1104.5,136.2,1106.7,129.8,1109.6,128.9z"/>
<path class="st17" d="M1197.3,329.4c5.9,5,14.5,3.5,22.5,2.1c2.8-0.5,5.4,1.1,6,3.8c2.1,8.9,5.5,29.1-2.5,44.9
	c-2.8,5.6-18.9-15.2-25.2-12.1c-18.4,6.1-20.5-2.8-28.2-4c-7.7-1.2-12.5,5.2-17.3,9.3c-4.8,4-12.9,2.4-12.5-1.6
	c0.3-3.2,11.7-12.1,17.3-16.1c-2.3-0.5-8-1.5-12.9-1.2c-6,0.4-12.5,11.7-20.5,16.1c-6.4,3.5-8.9-0.7-9.3-3.2c-0.3,1.3-5.2,2.9-8.8,2
	c-8.1-2-4-10.5,0-13.7c3.2-2.6,18.8-17.2,26.2-24.2c-3.8,0-12.1,0.6-15.3,2.8c-4,2.8-15.3,8.1-18.1,4.8c-2.8-3.2-2.4-7.6,16.1-16.9
	c25.5-12.8,46.3-14.5,58.8-10.9C1186.2,315,1190.1,323.6,1197.3,329.4z"/>
<path class="st19" d="M992.1,271.3c-1.4-8-2.8-16.7,2.1-22.6c0.3-0.3,0.5-0.7,0.8-1c5.8-7.2,13.8-17.1,18-28.3c0.5-1,1.1-2,1.8-3.2
	c3.9-6.8,10.2-17.7,7.1-35.9c-0.4-2.4-0.8-4.8-1.2-7.2c-3-18.4-5.6-34.4-14.5-41.1c-10.1-7.7-26.2-13.3-31.8-10.1
	c-3.2,5.6,0,12.5,5.6,11.3c1.9,0.6,4,4,4.8,5.6c-1.6,1.6-4.8,5.6-4.8,8.5c-3.6-2.8-9.3-2.4-11.3,1.6c-4-1.6-13.3,1.2-13.7,7.3
	c-0.3,4.8,1.2,10.6,2,12.9c-4.5-0.1-13,1.9-11.3,11.3c2.1,11.7,8.9,10.5,11.3,6.9c0,1.4,0,2.6-0.1,3.7c-0.1,4.5-0.2,7.2,2.1,10.4
	c0.8,1.2-1,3.5-3.6,7c-6.4,8.2-17.7,22.9-9.7,43.5c1.5,2.9-0.2,7.6-1.9,12.1c-1.8,4.9-3.4,9.5-0.5,11c15.9,8,36,4.6,44.9,2.5
	C991,276.7,992.6,274,992.1,271.3z M995.9,158.3c-2.2-2.9-3.4-7.1-4.1-10.8c0.4,5.3-3.8,8.4-6,9.3c2.6,5.4,8.4,15.6,10.9,13.6
	C999.9,168,998.2,161.2,995.9,158.3z"/>
<path class="st5" d="M908.9,146.9l0.9-1.7c0,0,14.5,4,21.6,2.9c6.3-1,10.8-2.3,14.6,0c7.3-1.9,67.1-25.2,82-25.3
	c14.8-0.1,16.9,7.1,5.2,12.4c-11.7,5.3-69.7,10.8-83.4,22.6c-8.5,7.3-13.3,11.8-47.1-1.1l1-1.8c0,0,20.3,5.7,20.9,3.6
	c0.4-0.9-18.3-6.3-18.3-6.3l1-2c0,0,18.3,4.5,18.7,3.2C926.6,152.1,908.9,146.9,908.9,146.9z"/>
<path class="st20" d="M1090.1,149c0,0-1.5,9.4-0.7,16.3c0.9,7,9.4,4,9.4,4"/>
<path class="st21" d="M949,297c-18.2,0-33,2.2-33,5v170c0,2.8,14.8,5,33,5s33-2.2,33-5V302C982,299.2,967.2,297,949,297z"/>
<path class="st22" d="M924,322h50v99c0,13.8-11.2,25-25,25s-25-11.2-25-25V322z"/>
<ellipse class="st23" cx="949" cy="322" rx="25" ry="3"/>
<path class="st24" d="M961.6,354.8c-5.7-0.8-10-5.7-10-11.6c0-2.7,0.9-5.2,2.5-7.2c5.7,0.8,10,5.7,10,11.6
	C964.1,350.3,963.2,352.8,961.6,354.8z"/>
<path class="st24" d="M967.6,412.7c0,4.1-2.1,8-5.9,10.2c-3.8,2.2-8.2,2-11.8,0c0-4.1,2.1-8,5.9-10.2
	C959.6,410.6,964.1,410.7,967.6,412.7z"/>
<path class="st24" d="M934.7,380.8c6.5,0,11.8-5.3,11.8-11.8c0-2.1-0.6-4.1-1.5-5.8c-0.7-0.1-1.4-0.2-2.1-0.2
	c-6.5,0-11.8,5.3-11.8,11.8c0,2.1,0.6,4.1,1.5,5.8C933.2,380.7,933.9,380.8,934.7,380.8z"/>
<path class="st25" d="M931,355l20-90"/>
<circle class="st25" cx="952.5" cy="258.5" r="7.5"/>
<path class="st26" d="M969.1,395c-2.9-5.1-7.7-8.7-13.4-10.3c-5.6-1.5-11.6-0.7-16.7,2.2c-5.1,2.9-8.7,7.7-10.3,13.4
	c-1.5,5.6-0.7,11.6,2.2,16.7l19.1-11L969.1,395z"/>
<path class="st23" d="M964.7,397.5c-2.3-3.9-6-6.8-10.3-7.9c-4.4-1.2-9-0.6-12.9,1.7c-3.9,2.3-6.8,6-7.9,10.3
	c-1.2,4.4-0.6,9,1.7,12.9L950,406L964.7,397.5z"/>
<path class="st21" d="M953.5,404c-0.5-0.9-1.4-1.6-2.4-1.9c-1-0.3-2.1-0.1-3,0.4c-0.9,0.5-1.6,1.4-1.9,2.4c-0.3,1-0.1,2.1,0.4,3
	l3.5-2L953.5,404z"/>
<path class="st27" d="M941.7,366.9l8.5-4.9c1-0.6,2.2-0.2,2.7,0.7l4.9,8.5c0.6,1,0.2,2.2-0.7,2.7l-8.5,4.9c-1,0.6-2.2,0.2-2.7-0.7
	l-4.9-8.5C940.4,368.7,940.8,367.5,941.7,366.9z"/>
<path class="st27" d="M958.6,345l8.5,4.9c1,0.6,1.3,1.8,0.7,2.7l-4.9,8.5c-0.6,1-1.8,1.3-2.7,0.7l-8.5-4.9c-1-0.6-1.3-1.8-0.7-2.7
	l4.9-8.5C956.5,344.8,957.7,344.4,958.6,345z"/>
<path class="st27" d="M958.6,378l8.5,4.9c1,0.6,1.3,1.8,0.7,2.7l-4.9,8.5c-0.6,1-1.8,1.3-2.7,0.7l-8.5-4.9c-1-0.6-1.3-1.8-0.7-2.7
	l4.9-8.5C956.5,377.8,957.7,377.4,958.6,378z"/>
<path class="st27" d="M939.3,336.2l9.8,0.9c1.1,0.1,1.9,1.1,1.8,2.2l-0.9,9.8c-0.1,1.1-1.1,1.9-2.2,1.8l-9.8-0.9
	c-1.1-0.1-1.9-1.1-1.8-2.2l0.9-9.8C937.2,336.9,938.2,336.1,939.3,336.2z"/>
<path class="st27" d="M933.7,434.1l8.5,4.9c1,0.6,2.2,0.2,2.7-0.7l4.9-8.5c0.6-1,0.2-2.2-0.7-2.7l-8.5-4.9c-1-0.6-2.2-0.2-2.7,0.7
	l-4.9,8.5C932.4,432.3,932.8,433.5,933.7,434.1z"/>
</svg>
