<svg width="121" height="105" viewBox="0 0 121 105" fill="none" xmlns="http://www.w3.org/2000/svg">
<path d="M60 105L32.1081 77.1295L0 60.6017L5.18919 24.6295L0 0.161865L60 11.9906V105Z" fill="#E4F7BB"/>
<path d="M60.0014 104.838L87.8933 76.9674L120.001 60.6017L114.812 24.6295L120.001 0.161865L60.0014 11.9906V104.838Z" fill="#D2E29A"/>
<path d="M119.839 59.4676L74.7576 14.9074L119.839 0L114.974 25.2778L119.839 59.4676Z" fill="#DAEAAE"/>
<path d="M0.322327 59.4676L45.5656 14.7454L0.322327 0L5.34935 25.2778L0.322327 59.4676Z" fill="#DAEAAE"/>
<path d="M114.811 24.9533C114 25.1154 74.9188 15.2311 74.9188 15.2311L119.513 0.32373L114.811 24.9533Z" fill="#C6D88B"/>
<path d="M5.35211 25.1152C6.16292 25.2773 45.244 15.393 45.244 15.393L0.649414 0.485596L5.35211 25.1152Z" fill="#C6D88B"/>
<path d="M68.9183 96.0879L59.9994 90.0925L51.0805 96.0879L59.9994 104.838L68.9183 96.0879Z" fill="white"/>
</svg>
