<svg width="154" height="42" viewBox="0 0 154 42" fill="none" xmlns="http://www.w3.org/2000/svg">
<path d="M20.74 31.1662L15.6657 26.0788L9.82428 23.0619L10.7683 16.4957L9.82428 12.0295L20.74 14.1887V31.1662Z" fill="#61D8DE"/>
<path d="M20.74 31.1366L25.8143 26.0493L31.6557 23.0619L30.7116 16.4957L31.6557 12.0295L20.74 14.1887V31.1366Z" fill="#4CC8C0"/>
<path d="M31.6262 22.8549L23.4246 14.7211L31.6262 12L30.7411 16.6141L31.6262 22.8549Z" fill="#36C1BF"/>
<path d="M9.88312 22.8549L18.1142 14.6915L9.88312 12L10.7977 16.6141L9.88312 22.8549Z" fill="#36C1BF"/>
<path d="M30.7115 16.555C30.564 16.5846 23.454 14.7803 23.454 14.7803L31.5671 12.0592L30.7115 16.555Z" fill="#22ACA7"/>
<path d="M10.7979 16.5845C10.9454 16.6141 18.0554 14.8099 18.0554 14.8099L9.94238 12.0887L10.7979 16.5845Z" fill="#22ACA7"/>
<path d="M22.3626 29.5394L20.74 28.4451L19.1174 29.5394L20.74 31.1366L22.3626 29.5394Z" fill="#B1DCE3"/>
<path d="M54.7558 27.1817L54.7263 19.2845L50.8911 25.7028H49.0325L45.2267 19.4916V27.1817H41.3325V12.2747H44.7842L50.006 20.8817L55.1098 12.2747H58.5616L58.5911 27.1817H54.7558Z" fill="#202020"/>
<path d="M72.457 22.4197H64.0785C64.4325 23.6028 65.4061 24.2831 66.9107 24.2831C68.0318 24.2831 68.7693 23.9578 69.5659 23.2775L71.69 25.4958C70.5984 26.738 68.9758 27.3592 66.7927 27.3592C62.6919 27.3592 60.0367 24.8155 60.0367 21.3845C60.0367 17.924 62.7214 15.4395 66.3797 15.4395C69.7724 15.4395 72.5456 17.5986 72.5456 21.4141C72.516 21.7395 72.4866 22.124 72.457 22.4197ZM64.0195 20.2902H68.7398C68.5333 19.0775 67.6482 18.3085 66.3797 18.3085C65.1406 18.3085 64.2555 19.0775 64.0195 20.2902Z" fill="#202020"/>
<path d="M84.2281 20.7634V27.1817H80.4814V25.7028C79.9208 26.7972 78.7702 27.3887 77.0886 27.3887C74.3154 27.3887 72.8109 25.8211 72.8109 23.8394C72.8109 21.7099 74.3745 20.3789 77.9442 20.3789H80.2453C80.1863 19.1958 79.3898 18.5451 77.7967 18.5451C76.7051 18.5451 75.466 18.9296 74.6695 19.5507L73.3124 16.8C74.64 15.9127 76.5871 15.469 78.3867 15.469C82.0745 15.4394 84.2281 17.0958 84.2281 20.7634ZM80.1863 23.4845V22.4789H78.4457C77.1476 22.4789 76.6756 22.9521 76.6756 23.662C76.6756 24.3423 77.2361 24.8451 78.1802 24.8451C79.0948 24.8155 79.8618 24.4014 80.1863 23.4845Z" fill="#202020"/>
<path d="M86.1459 11.3873H90.1877V27.1817H86.1459V11.3873Z" fill="#202020"/>
<path d="M92.3413 12.2747H99.3628C104.29 12.2747 107.682 15.1437 107.682 19.7282C107.682 24.3127 104.319 27.1817 99.3628 27.1817H92.3413V12.2747ZM99.2152 23.8099C101.752 23.8099 103.434 22.3014 103.434 19.7282C103.434 17.1549 101.723 15.6465 99.2152 15.6465H96.5601V23.8394H99.2152V23.8099Z" fill="#202020"/>
<path d="M116.769 15.4395V19.0775C116.415 19.0479 116.149 19.0183 115.854 19.0183C114.232 19.0183 113.081 19.8465 113.081 21.8578V27.1521H109.039V15.6169H112.875V17.0071C113.73 15.9718 115.058 15.4395 116.769 15.4395Z" fill="#202020"/>
<path d="M116.946 21.3845C116.946 17.924 119.69 15.4395 123.436 15.4395C127.242 15.4395 129.927 17.924 129.927 21.3845C129.927 24.8747 127.242 27.3592 123.436 27.3592C119.69 27.3592 116.946 24.8747 116.946 21.3845ZM125.885 21.3845C125.885 19.6395 124.853 18.6634 123.466 18.6634C122.109 18.6634 121.047 19.6395 121.047 21.3845C121.047 23.1592 122.109 24.1648 123.466 24.1648C124.853 24.1648 125.885 23.1592 125.885 21.3845Z" fill="#202020"/>
<path d="M144.088 21.4141C144.088 25.0817 141.55 27.3888 138.423 27.3888C137.096 27.3888 136.004 26.9747 135.208 26.1761V31.3226H131.166V15.6465H135.001V16.8C135.768 15.8831 136.889 15.469 138.394 15.469C141.55 15.4395 144.088 17.7465 144.088 21.4141ZM140.016 21.4141C140.016 19.669 138.954 18.6634 137.597 18.6634C136.24 18.6634 135.178 19.669 135.178 21.4141C135.178 23.1592 136.24 24.1648 137.597 24.1648C138.954 24.1648 140.016 23.1592 140.016 21.4141Z" fill="#202020"/>
</svg>
