<?xml version="1.0" encoding="utf-8"?>

<!DOCTYPE svg PUBLIC "-//W3C//DTD SVG 1.1//EN" "http://www.w3.org/Graphics/SVG/1.1/DTD/svg11.dtd">
<svg version="1.1" id="Layer_1" xmlns="http://www.w3.org/2000/svg" xmlns:xlink="http://www.w3.org/1999/xlink" x="0px" y="0px"
	 viewBox="0 0 2249.942 1673.281" style="enable-background:new 0 0 2249.942 1673.281;" xml:space="preserve">
<style type="text/css">
	.st0{fill:#373435;stroke:#373435;}
	.st1{fill:#FEFEFE;stroke:#FEFEFE;}
	.st2{fill:#CDE1F2;stroke:#CDE1F2;}
	.st3{fill:#F49DBA;stroke:#F49DBA;}
	.st4{fill:#F2BFD0;stroke:#F2BFD0;}
	.st5{fill:#282829;stroke:#282829;}
	.st6{fill:#F8E35E;stroke:#F8E35E;}
	.st7{fill:#AEA983;stroke:#AEA983;}
	.st8{fill:#39AEE3;stroke:#39AEE3;}
	.st9{fill:#E6F0F8;stroke:#E6F0F8;}
	.st10{fill:#E4EEF9;stroke:#E4EEF9;}
	.st11{fill:#C73459;stroke:#C73459;}
</style>
<g>
	<path class="st0" d="M360.227,39.96c4.609-1.368,9.23-4.441,14.186-2.826c25.222,5.91,50.286,12.628,74.79,21.072
		c63.116,20.568,123.843,47.965,182.226,79.444c90.221,49.086,175.004,108.277,251.711,176.607
		c4.374,3.936,8.523,8.131,13.211,11.708c15.947-3.847,31.771-8.209,47.875-11.439c90.468-19.166,183.998-23.495,275.912-13.57
		c45.105,4.957,89.851,13.312,133.566,25.513c65.504-59.83,136.986-113.11,212.999-158.855
		c76.551-46.081,157.711-84.917,242.863-112.247c15.902-5.114,31.973-9.678,48.155-13.794c7.278-1.637,14.433-3.981,21.846-4.934
		c6.56,1.503,12.986,3.97,19.177,6.617c6.74,7.615,11.932,16.542,17.641,24.952c48.481,77.268,80.05,164.888,93.631,255.008
		c7.604,52.17,9.061,105.249,3.791,157.722c-9.23,94.842-40.115,186.857-85.478,270.395c-12.886,23.685-26.881,46.754-41.819,69.194
		c-3.768,6.078-8.433,11.596-11.775,17.921c3.981,21.072,7.985,42.223,10.093,63.609c5.641,52.058,4.351,104.856-3.723,156.6
		c-14.198,90.457-49.737,177.224-101.582,252.609c-45.924,67.13-104.217,125.514-170.148,173.041
		c-74.633,53.875-158.967,94.046-247.427,119.301c-99.933,28.799-205.137,38.511-308.726,30.134
		c-51.688-4.161-103.006-12.964-153.045-26.578c-86.565-23.169-169.374-60.615-243.491-111.036
		c-67.142-45.755-127.073-102.411-175.082-168.05c-26.702-36.459-49.613-75.698-68.106-116.935
		c-30.627-68.588-48.716-142.851-51.924-217.944c-2.321-51.879,2.041-104.071,13.211-154.795c0.527-1.604-0.886-2.905-1.536-4.206
		c-51.643-74.521-92.879-156.87-116.497-244.612c-16.721-60.951-24.582-124.314-23.035-187.497
		c1.828-81.003,19.513-161.412,50.219-236.314c17.528-42.043,38.645-82.82,65.303-119.85
		C351.547,42.024,356.381,41.519,360.227,39.96 M1704.822,135.486c-19.412,10.015-38.556,20.568-58.08,30.369
		c-9.589,5.91-19.659,10.99-29.449,16.553c-41.875,23.82-82.551,49.782-121.611,77.986c-34.16,24.751-67.456,50.813-98.756,79.119
		c14.96,5.271,29.92,10.564,44.645,16.463c20.007,7.76,39.274,17.27,58.821,26.051c50.623-47.09,107.604-87.272,168.51-119.951
		c39.666-21.083,81.16-38.937,124.269-51.654c9.566-1.705,18.773-5.024,28.306-6.908c2.849-0.191,5.473,1.458,8.22,2.131
		c15.33,19.996,26.825,42.649,37.21,65.527c20.242,46.193,31.894,96.255,33.532,146.676c1.963,51.924-7.099,104.004-24.952,152.731
		c-14.411,38.791-33.98,75.631-57.396,109.724c-1.861,1.884-0.336,4.161,0.662,6.045c17.237,32.5,31.221,66.693,42.256,101.772
		c2.579-1.559,3.645-4.531,5.316-6.897c43.737-68.992,77.583-144.668,96.188-224.359c2.344-9.42,3.712-19.065,6.605-28.35
		c12.729-61.422,12.953-124.953,4.822-187.003c-5.899-46.765-17.495-92.7-33.341-137.065
		c-15.891-44.914-34.855-88.898-58.832-130.134C1821.162,89.305,1760.536,106.743,1704.822,135.486 M336.161,140.252
		c-17.495,39.509-33.24,79.926-44.152,121.779c-10.441,39.576-16.721,80.218-19.289,121.05
		c-3.353,53.37-0.594,107.514,12.089,159.584c13.446,64.035,36.705,125.884,67.433,183.594
		c11.136,20.882,22.867,41.483,36.032,61.153c13.693-42.257,31.244-83.347,53.572-121.79c1.671-1.918,0.886-4.239-0.516-6.011
		c-29.046-45.8-50.78-96.457-62.106-149.569c-14.074-65.964-10.53-135.528,10.026-199.765
		c12.078-37.883,28.978-74.555,52.428-106.808c2.366-0.74,4.688-1.649,7.121-2.176c10.239,1.514,20.04,5.147,30.178,7.144
		c1.469,0.729,3.073,1.144,4.643,1.637c21.588,6.325,42.671,14.265,63.351,23.08c79.837,34.597,153.55,82.887,218.169,141.079
		c6.617-2.378,12.818-5.764,19.3-8.501c22.452-9.97,45.509-18.459,68.712-26.478c-8.467-8.22-17.741-15.555-26.668-23.27
		c-69.699-58.047-145.498-108.748-225.626-151.229c-21.498-10.957-42.851-22.216-64.428-33.016
		c-24.571-12.168-50.208-22.037-76.214-30.672c-30.021-9.656-60.256-18.863-91.051-25.704
		C356.785,96.269,346.119,118.126,336.161,140.252 M447.387,216.153c0.426,0.471,1.267,1.402,1.693,1.862
		c-1.873,2.49-3.622,5.058-5.26,7.693c-34.126,54.166-53.897,117.125-58.013,180.936c-2.108,36.1,0.987,72.446,9.151,107.671
		c10.957,47.673,30.717,93.16,56.69,134.53c39.744-64.652,90.692-122.205,149.12-170.563l0.056-0.662
		c6.146-3.634,11.316-8.669,17.192-12.706c22.609-16.407,45.195-32.87,68.745-47.909c20.825-13.076,42.38-25.009,64.573-35.584
		c-6.46-7.895-14.949-13.783-22.732-20.287c-19.11-15.028-38.388-29.887-58.529-43.535c-34.664-23.629-71.112-44.656-109.062-62.566
		c-31.143-14.859-62.891-29.449-96.894-36.414C458.579,217.588,453.084,215.917,447.387,216.153 M1703.667,259.822
		c-39.677,20.063-78.143,42.615-114.467,68.274c-21.196,14.882-42.369,29.876-62.039,46.754c-4.733,4.553-10.385,8.59-13.301,14.635
		c20.354,11.865,40.182,24.605,60.604,36.358c19.525,11.45,37.961,24.616,56.219,37.95c4.048,3.847,8.77,6.931,13.009,10.598
		c66.256,53.751,123.035,119.424,165.213,193.676c32.006-47.157,56.32-99.933,68.667-155.692
		c9.835-44.769,11.495-91.343,4.71-136.683c-7.222-48.357-23.831-95.279-48.256-137.614c-4.127-6.538-7.648-13.592-12.919-19.312
		l0.617-0.628C1780.016,224.025,1741.057,241.161,1703.667,259.822 M1085.104,344.638c-59.045,2.837-117.888,11.697-174.869,27.532
		C824.59,395.384,742.847,433.413,670.58,485c-71.403,51.071-133.566,115.678-179.187,190.861
		c-48.391,79.276-77.605,170.54-81.855,263.453c-4.026,79.029,9.577,158.799,39.206,232.153
		c33.745,84.255,87.934,159.707,154.526,221.129c66.11,61.265,144.444,108.804,228.239,141.708
		c94.999,36.963,197.119,55.355,299.037,54.346c143.435-0.673,287.25-39.61,409.344-115.432
		c71.224-44.186,134.911-100.954,185.153-168.152c54.806-72.984,92.98-158.776,107.94-248.941
		c9.084-54.828,9.802-111.047,2.097-166.088c-12.829-92.195-50.028-180.431-104.755-255.547
		c-48.144-66.334-109.32-122.856-178.02-167.411c-78.48-51.082-166.817-86.442-258.317-105.899
		C1225.455,346.713,1155.05,341.364,1085.104,344.638z"/>
	<path class="st1" d="M1704.822,135.486c55.714-28.743,116.34-46.182,176.944-61.176c23.977,41.236,42.941,85.22,58.832,130.134
		c15.846,44.365,27.442,90.3,33.341,137.065c8.131,62.05,7.906,125.581-4.822,187.003c-2.893,9.286-4.262,18.93-6.605,28.35
		c-18.605,79.691-52.451,155.367-96.188,224.359c-1.671,2.366-2.736,5.338-5.316,6.897c-11.035-35.079-25.02-69.272-42.256-101.772
		c-0.998-1.884-2.523-4.161-0.662-6.045c23.416-34.092,42.986-70.932,57.396-109.724c17.854-48.727,26.915-100.808,24.952-152.731
		c-1.637-50.421-13.289-100.483-33.532-146.676c-10.385-22.878-21.88-45.531-37.21-65.527c1.458-7.581,8.478-11.977,13.682-16.968
		c11.293-10.474,23.876-19.446,35.203-29.853c-8.579,3.779-16.295,9.151-24.47,13.659c-13.48,7.783-26.904,15.656-40.271,23.629
		c-7.424,3.97-14.4,8.691-20.669,14.31c-43.109,12.717-84.603,30.571-124.269,51.654c-60.906,32.679-117.888,72.861-168.51,119.951
		c-19.547-8.781-38.814-18.291-58.821-26.051c-14.725-5.899-29.685-11.192-44.645-16.463c31.3-28.306,64.596-54.368,98.756-79.119
		c39.06-28.205,79.736-54.166,121.611-77.986c9.79-5.562,19.861-10.643,29.449-16.553
		C1666.267,156.054,1685.41,145.501,1704.822,135.486z"/>
	<path class="st1" d="M336.161,140.252c9.959-22.126,20.624-43.984,33.005-64.888c30.795,6.841,61.03,16.048,91.051,25.704
		c26.007,8.635,51.643,18.504,76.214,30.672c21.577,10.8,42.929,22.059,64.428,33.016c80.128,42.481,155.928,93.182,225.626,151.229
		c8.927,7.716,18.201,15.05,26.668,23.27c-23.203,8.018-46.26,16.508-68.712,26.478c-6.482,2.736-12.684,6.123-19.3,8.501
		c-64.618-58.192-138.332-106.483-218.169-141.079c-20.68-8.815-41.763-16.755-63.351-23.08c-1.57-0.493-3.174-0.908-4.643-1.637
		c-10.026-8.478-21.767-14.456-32.993-21.128c-14.108-8.377-28.328-16.542-42.425-24.919c-3.163-1.884-6.493-3.477-9.902-4.878
		c4.25,4.497,9.274,8.131,14.052,12.011c10.205,8.433,20.433,16.9,29.573,26.511c1.985,2.131,3.163,4.833,4.396,7.435
		c-23.45,32.253-40.35,68.925-52.428,106.808c-20.556,64.237-24.1,133.801-10.026,199.765
		c11.327,53.112,33.061,103.769,62.106,149.569c1.402,1.772,2.187,4.093,0.516,6.011c-22.328,38.444-39.879,79.534-53.572,121.79
		c-13.166-19.67-24.896-40.272-36.032-61.153c-30.728-57.71-53.987-119.559-67.433-183.594
		c-12.684-52.069-15.443-106.213-12.089-159.584c2.568-40.832,8.848-81.474,19.289-121.05
		C302.921,220.179,318.666,179.761,336.161,140.252z"/>
	<path class="st2" d="M393.658,157.512c3.409,1.402,6.74,2.994,9.902,4.878c14.097,8.377,28.317,16.542,42.425,24.919
		c11.226,6.673,22.967,12.65,32.993,21.128c-10.138-1.996-19.94-5.63-30.178-7.144c-2.434,0.527-4.755,1.435-7.121,2.176
		c-1.234-2.602-2.411-5.305-4.396-7.435c-9.14-9.611-19.368-18.078-29.573-26.511C402.933,165.642,397.908,162.009,393.658,157.512z
		"/>
	<path class="st2" d="M1854.111,172.483c8.176-4.508,15.891-9.88,24.47-13.659c-11.327,10.407-23.91,19.379-35.203,29.853
		c-5.203,4.99-12.224,9.387-13.682,16.968c-2.748-0.673-5.372-2.321-8.22-2.131c-9.532,1.884-18.74,5.204-28.306,6.908
		c6.269-5.618,13.245-10.34,20.669-14.31C1827.207,188.139,1840.631,180.266,1854.111,172.483z"/>
	<path class="st3" d="M447.387,216.153c5.697-0.236,11.192,1.435,16.732,2.467c34.003,6.964,65.751,21.554,96.894,36.414
		c37.95,17.91,74.398,38.937,109.062,62.566c20.141,13.648,39.419,28.507,58.529,43.535c7.783,6.504,16.272,12.392,22.732,20.287
		c-22.194,10.575-43.748,22.508-64.573,35.584c-23.551,15.039-46.137,31.502-68.745,47.909c-5.876,4.037-11.046,9.073-17.192,12.706
		c-0.437-9.42,9.106-14.568,11.316-23.102c3.622-12.549-0.045-25.726-4.374-37.614c-7.985-20.523-19.996-39.173-32.612-57.116
		c-11.192-15.577-22.844-30.84-35.36-45.363c-12.089-14.052-24.055-28.238-36.941-41.572c-17.147-19.02-35.763-36.649-53.774-54.839
		C448.654,217.555,447.813,216.624,447.387,216.153z"/>
	<path class="st4" d="M449.081,218.014c18.011,18.19,36.627,35.819,53.774,54.839c12.886,13.334,24.852,27.521,36.941,41.572
		c12.516,14.523,24.167,29.786,35.36,45.363c12.616,17.943,24.627,36.593,32.612,57.116c4.329,11.887,7.996,25.065,4.374,37.614
		c-2.209,8.534-11.753,13.682-11.316,23.102l-0.056,0.662c-58.428,48.357-109.376,105.911-149.12,170.563
		c-25.973-41.371-45.733-86.857-56.69-134.53c-8.164-35.225-11.259-71.571-9.151-107.671c4.116-63.811,23.887-126.77,58.013-180.936
		C445.458,223.072,447.208,220.504,449.081,218.014z"/>
	<path class="st3" d="M1703.667,259.822c37.389-18.661,76.349-35.797,118.056-41.685l-0.617,0.628
		c-15.297,13.985-31.289,27.207-46.126,41.685c-9.095,7.716-17.024,16.654-25.984,24.493c-14.758,13.278-27.599,28.463-41.718,42.38
		c-15.532,16.71-30.448,34.003-44.365,52.081c-9.286,11.966-17.697,24.638-24.75,38.062c-4.194,8.366-8.03,17.113-9.42,26.433
		c-1.021,6.673-0.045,13.491,1.94,19.895c-18.257-13.334-36.694-26.5-56.219-37.95c-20.422-11.753-40.249-24.493-60.604-36.358
		c2.916-6.045,8.568-10.082,13.301-14.635c19.67-16.878,40.843-31.872,62.039-46.754
		C1625.524,302.438,1663.99,279.885,1703.667,259.822z"/>
	<path class="st4" d="M1774.981,260.45c14.837-14.478,30.829-27.7,46.126-41.685c5.271,5.719,8.792,12.773,12.919,19.312
		c24.425,42.335,41.034,89.257,48.256,137.614c6.785,45.341,5.125,91.915-4.71,136.683c-12.347,55.759-36.66,108.535-68.667,155.692
		c-42.178-74.252-98.958-139.924-165.213-193.676c-4.239-3.667-8.96-6.751-13.009-10.598c-1.985-6.404-2.961-13.222-1.94-19.895
		c1.391-9.319,5.226-18.067,9.42-26.433c7.054-13.424,15.465-26.096,24.75-38.062c13.917-18.078,28.833-35.371,44.365-52.081
		c14.119-13.917,26.96-29.102,41.718-42.38C1757.957,277.104,1765.886,268.166,1774.981,260.45z"/>
	<path class="st1" d="M1085.104,344.638c69.945-3.275,140.35,2.075,208.883,16.542c91.5,19.457,179.837,54.817,258.317,105.899
		c68.701,44.556,129.876,101.077,178.02,167.411c54.727,75.115,91.926,163.352,104.755,255.547
		c7.704,55.041,6.987,111.26-2.097,166.088c-14.96,90.165-53.135,175.957-107.94,248.941
		c-50.241,67.198-113.929,123.966-185.153,168.152c-122.093,75.822-265.909,114.759-409.344,115.432
		c-101.918,1.009-204.038-17.383-299.037-54.346c-83.795-32.904-162.129-80.442-228.239-141.708
		c-66.592-61.422-120.781-136.874-154.526-221.129c-29.629-73.355-43.232-153.124-39.206-232.153
		c4.25-92.913,33.464-184.177,81.855-263.453C537.014,600.678,599.177,536.071,670.58,485
		c72.267-51.587,154.01-89.616,239.656-112.83C967.217,356.335,1026.06,347.476,1085.104,344.638 M679.72,724.005
		c-34.216,16.609-59.078,50.309-65.987,87.586c-11.787,33.352-8.725,71.089,6.852,102.692c-0.078,4.026,1.525,7.761,3.376,11.248
		c15.981,34.384,49.176,60.525,86.666,66.929c21.095,3.768,43.176,1.514,63.138-6.258c25.008-10.071,46.406-28.821,59.886-52.137
		c3.05-5.888,6.818-11.697,7.48-18.448c16.968-32.847,19.334-72.794,6.482-107.436l0.572-0.863l-0.437-1.121l-0.998-0.202
		l-0.101-0.83c-0.897-6.875-3.757-13.312-6.291-19.715c-14.646-34.115-45.318-61.377-81.642-70.069
		C732.462,708.843,703.932,711.893,679.72,724.005 M1410.944,749.855c-18.482,17.069-31.423,39.913-36.851,64.45
		c-2.299,10.587-3.869,21.498-2.591,32.332c-1.177,13.715,0.022,27.621,3.409,40.956c-0.415,0.381-1.256,1.121-1.671,1.492
		c2.871,18.347,10.429,35.898,21.33,50.903c6.572,8.994,13.984,17.439,22.956,24.134c31.311,26.119,76.988,33.094,114.837,18.168
		c34.193-12.885,61.131-42.503,71.885-77.291c2.916-9.656,5.596-19.738,4.755-29.92c1.301-9.409,1.637-18.986,1.121-28.474
		c1.189-24.56-5.428-49.378-18.224-70.338c-20.893-34.81-60.391-58.675-101.369-57.621
		C1461.23,717.871,1432.375,730.173,1410.944,749.855 M1809.051,874.146c-0.819,14.994-0.034,30.033-0.471,45.038
		c-1.11,13.816-1.559,27.689-3.185,41.471c-4.789,43.984-14.557,87.406-28.631,129.349c-4.733,12.897-8.826,26.108-15.353,38.242
		c-4.542,10.059-9.039,20.141-13.828,30.089c-5.865,10.643-11.035,21.633-17.181,32.13c-20.489,35.214-44.387,68.499-71.426,98.991
		c-13.637,15.846-29.034,30.021-43.636,44.948c-38.365,35.707-80.554,67.231-125.267,94.539
		c-19.794,11.888-39.733,23.607-60.458,33.79c-6.807,3.847-13.659,7.604-20.904,10.542
		c-52.013,25.513-106.213,46.361-161.311,64.147c-9.263,3.925-19.031,6.37-28.608,9.342c-35.786,12.246-73.96,14.018-111.383,16.373
		c-8.254,1.099-16.598-0.067-24.851,1.043c-8.265,0.998-16.609,0.471-24.908,0.594c-7.133-0.011-14.187,1.312-21.33,1.088
		c-2.759,0.202-6.617-0.572-8.086,2.467c7.536,0.796,15.128,0.258,22.687,0.404c9.207-0.146,18.437,0.415,27.621-0.561
		c12.975-1.256,26.074,0.381,39.049-1.189c59.213-2.49,118.482-8.142,176.697-19.603c11.136-1.929,22.115-4.721,33.341-6.168
		c64.809-14.209,128.104-35.92,187.205-66.2c38.186-20.164,74.756-43.692,107.514-71.919c8.254-6.258,15.184-13.984,23.169-20.568
		c7.368-7.2,14.803-14.377,21.442-22.294c10.441-10.564,19.839-22.115,28.9-33.879c14.411-18.526,27.509-38.04,39.15-58.417
		c5.473-8.781,9.017-18.56,13.94-27.644c15.431-29.82,27.005-61.467,36.638-93.586c14.198-47.74,22.519-97.13,25.85-146.788
		c0.056-8.635,1.548-17.192,1.267-25.827c0.056-16.441,0.135-32.881,0-49.333c0.303-15.364-1.436-30.661-2.333-45.98
		C1809.982,877.264,1810.744,874.965,1809.051,874.146 M1031.891,1027.976c-4.71,3.028-8.075,8.792-6.74,14.478
		c1.57,7.065,7.11,12.235,12.347,16.822c10.34,8.545,21.678,15.768,32.623,23.483c14.523,10.194,29.483,20.388,40.642,34.384
		c-6.089,5.035-11.091,11.215-17.147,16.272c-16.373,14.097-34.732,26.511-55.456,33.128c-10.497,3.263-21.274,5.551-32.152,7.065
		c-9.443,1.48-19.042,1.649-28.474,3.185c-19.525-1.996-38.982-7.211-55.927-17.338c-15.106-8.781-27.453-21.857-35.943-37.075
		c-5.865,2.131-11.596,4.609-17.383,6.931c1.626,8.243,4.385,16.228,6.46,24.369c7.682,27.139,15.375,54.301,24.65,80.969
		c13.872,40.204,31.199,79.635,55.658,114.613c22.844,32.634,53.045,60.929,89.627,77.425
		c25.143,11.618,52.652,17.629,80.263,18.919c40.361-0.662,79.657-16.833,110.486-42.57c33.128-27.565,57.991-63.744,77.56-101.828
		c23.472-45.206,40.081-93.586,54.223-142.403c2.579-9.903,6.146-19.603,7.76-29.707c-5.181-3.084-10.351-6.179-15.644-9.039
		c-23.73,23.786-51.565,44.511-83.807,54.996c-9.835-0.875-19.715-0.056-29.539-0.953c-20.814-1.29-42.29-4.284-60.716-14.702
		c-18.683-10.699-33.734-26.881-44.881-45.172c13.155-15.241,30.234-26.242,46.44-37.894c9.465-6.874,19.39-13.312,27.554-21.767
		c3.97-4.161,7.581-9.454,7.233-15.465c-0.303-5.495-4.463-9.925-9.14-12.347c-10.351-5.585-22.665-5.854-34.014-3.914
		c-18.19,3.129-35.315,10.654-51.374,19.536c-1.2,0.583-2.579,1.48-3.88,0.639c-20.747-10.732-42.974-20.534-66.682-21.263
		C1047.984,1021.674,1039.17,1023.323,1031.891,1027.976z"/>
	<path class="st5" d="M679.72,724.005c24.212-12.112,52.742-15.162,78.995-8.624c36.324,8.691,66.996,35.954,81.642,70.069
		c2.534,6.404,5.394,12.841,6.291,19.715c-6.975-15.644-15.97-30.56-28.272-42.615c-27.835-28.81-70.461-42.638-109.836-34.687
		c-19.984,4.071-39.61,12.482-54.817,26.309c-0.28,0.247-0.852,0.729-1.133,0.964c-18.313,14.287-31.165,34.72-38.859,56.454
		C620.641,774.314,645.504,740.614,679.72,724.005z"/>
	<path class="st5" d="M1410.944,749.855c21.431-19.682,50.286-31.984,79.59-31.21c40.978-1.054,80.476,22.81,101.369,57.621
		c12.796,20.96,19.412,45.778,18.224,70.338c-2.748-35.931-21.218-70.607-50.567-91.78c-20.119-14.803-45.139-22.99-70.136-22.485
		c-18.56-0.056-37.019,4.867-53.404,13.502c-6.168,3.32-12.269,6.953-17.371,11.809c-0.292,0.236-0.864,0.706-1.155,0.942
		c-12.414,8.859-22.048,21.162-29.707,34.227c-9.476,16.396-14.994,34.933-16.284,53.819c-1.279-10.833,0.292-21.745,2.591-32.332
		C1379.521,789.768,1392.463,766.923,1410.944,749.855z"/>
	<path class="st6" d="M708.541,727.863c39.374-7.951,82.001,5.876,109.836,34.687c12.302,12.056,21.297,26.971,28.272,42.615
		l0.101,0.83c0.213,0.538,0.639,1.637,0.864,2.187c12.852,34.642,10.486,74.588-6.482,107.436
		c-17.113,32.735-48.761,58.002-85.208,65.247c-38.758,8.512-81.194-4.037-109.421-31.849
		c-10.598-9.959-19.076-21.936-25.917-34.732c-15.577-31.603-18.639-69.34-6.852-102.692c7.693-21.734,20.545-42.167,38.859-56.454
		c-4.598,5.876-10.093,11.08-13.872,17.573c-10.901,17.865-12.515,41.034-4.004,60.189c8.063,18.953,25.3,33.229,44.903,39.06
		c-1.391,20.848,2.086,42.425,12.258,60.85c6.415,11.405,15.813,21.902,28.35,26.534c11.035,4.149,23.842,2.31,33.532-4.295
		c15.442-10.34,24.47-27.823,28.855-45.475c3.914-13.839,3.88-28.418,2.837-42.649c-2.12-15.857-6.695-31.861-16.183-44.948
		c2.871-14.299,1.772-29.573-4.475-42.862c-9.151-19.85-28.294-34.519-49.658-38.814c-17.618-3.51-36.694-0.83-52.125,8.568
		c-3.05,1.862-6.146,3.622-9.286,5.305C668.931,740.345,688.557,731.934,708.541,727.863z"/>
	<path class="st6" d="M1436.02,745.84c16.385-8.635,34.844-13.558,53.404-13.502c24.997-0.505,50.017,7.682,70.136,22.485
		c29.349,21.173,47.819,55.849,50.567,91.78c0.516,9.488,0.179,19.065-1.121,28.474c-5.529,36.044-27.184,69.497-58.708,88.113
		c-33.005,20.018-76.08,21.79-110.677,4.699c-32.04-15.532-55.871-45.946-64.708-80.296c-3.387-13.334-4.587-27.24-3.409-40.956
		c1.29-18.885,6.807-37.423,16.284-53.819c7.66-13.065,17.293-25.367,29.707-34.227c-4.946,5.921-11.035,10.901-14.949,17.641
		c-10.744,16.676-12.684,38.488-5.383,56.892c7.177,18.437,23.27,32.758,41.965,38.87c-1.065,19.401,1.727,39.296,10.284,56.88
		c5.305,10.788,13.043,20.725,23.383,27.083c8.725,5.428,19.726,7.088,29.618,4.205c15.409-4.609,26.489-17.876,33.206-31.95
		c9.42-20.254,12.269-43.412,8.871-65.437c-2.4-15.072-7.458-29.988-16.542-42.391c3.421-20.994-4.284-43.333-20.175-57.52
		c-20.242-19.087-52.383-23.461-77.28-11.327c-3.959,2.019-7.828,4.217-11.843,6.112
		C1423.751,752.793,1429.852,749.16,1436.02,745.84z"/>
	<path class="st1" d="M663.01,748.868c15.431-9.398,34.507-12.078,52.125-8.568c21.364,4.295,40.507,18.964,49.658,38.814
		c6.247,13.289,7.346,28.563,4.475,42.862c-2.378,8.074-5.697,15.913-10.441,22.889c-8.848,11.943-21.184,21.386-35.348,26.063
		c-9.802,3.286-20.298,4.396-30.582,3.521c-4.475-0.583-8.916-1.368-13.278-2.49c-19.603-5.832-36.84-20.108-44.903-39.06
		c-8.512-19.155-6.897-42.324,4.004-60.189c3.779-6.493,9.274-11.697,13.872-17.573c0.28-0.236,0.852-0.718,1.133-0.964
		C656.864,752.49,659.96,750.73,663.01,748.868z"/>
	<path class="st1" d="M1430.491,751.537c24.896-12.134,57.037-7.76,77.28,11.327c15.891,14.186,23.595,36.526,20.175,57.52
		c-1.749,9.117-5.215,17.921-10.418,25.637c-8.949,12.527-22.025,22.182-36.885,26.399c-9.028,2.691-18.583,3.331-27.936,2.445
		c-4.598-0.639-9.14-1.604-13.581-2.871c-18.695-6.112-34.788-20.433-41.965-38.87c-7.301-18.403-5.361-40.216,5.383-56.892
		c3.914-6.74,10.003-11.719,14.949-17.641c0.292-0.236,0.864-0.706,1.155-0.942C1422.663,755.754,1426.533,753.556,1430.491,751.537
		z"/>
	<path class="st7" d="M846.75,805.995l0.998,0.202l0.437,1.121l-0.572,0.863C847.389,807.632,846.963,806.533,846.75,805.995z"/>
	<path class="st8" d="M1527.946,820.383c9.084,12.403,14.142,27.319,16.542,42.391c3.398,22.025,0.55,45.184-8.871,65.437
		c-6.718,14.074-17.797,27.341-33.206,31.95c-9.891,2.882-20.893,1.222-29.618-4.205c-10.34-6.359-18.078-16.295-23.383-27.083
		c-8.557-17.584-11.349-37.479-10.284-56.88c4.441,1.267,8.983,2.232,13.581,2.871c-2.411,18.336,1.065,38.073,12.067,53.224
		c5.753,7.805,14.613,14.13,24.627,14.164c9.88,0.46,18.863-5.394,24.807-12.897c10.228-12.897,14.097-29.853,13.749-46.069
		c-0.247-13.043-3.723-26.04-10.43-37.266C1522.731,838.304,1526.197,829.501,1527.946,820.383z"/>
	<path class="st8" d="M758.827,844.865c4.744-6.976,8.063-14.815,10.441-22.889c9.488,13.087,14.063,29.091,16.183,44.948
		c1.043,14.231,1.077,28.81-2.837,42.649c-4.385,17.652-13.413,35.135-28.855,45.475c-9.689,6.605-22.496,8.445-33.532,4.295
		c-12.538-4.632-21.936-15.129-28.35-26.534c-10.172-18.426-13.648-40.002-12.258-60.85c4.363,1.121,8.804,1.906,13.278,2.49
		c-0.841,12.112-1.514,24.605,2.097,36.369c3.23,11.013,8.501,21.969,17.54,29.393c7.772,6.437,19.02,9.443,28.62,5.506
		c12.639-5.024,20.893-17.102,25.278-29.517C774.461,892.886,772.285,865.769,758.827,844.865z"/>
	<path class="st5" d="M723.479,870.927c14.164-4.676,26.5-14.119,35.348-26.063c13.458,20.904,15.633,48.021,7.604,71.336
		c-4.385,12.415-12.639,24.493-25.278,29.517c-9.6,3.936-20.848,0.931-28.62-5.506c-9.039-7.424-14.31-18.381-17.54-29.393
		c-3.611-11.764-2.938-24.257-2.097-36.369C703.181,875.324,713.677,874.213,723.479,870.927z"/>
	<path class="st5" d="M1517.528,846.02c6.706,11.226,10.183,24.224,10.43,37.266c0.348,16.216-3.521,33.173-13.749,46.069
		c-5.944,7.503-14.927,13.357-24.807,12.897c-10.015-0.034-18.874-6.359-24.627-14.164c-11.002-15.151-14.478-34.889-12.067-53.224
		c9.353,0.886,18.908,0.247,27.936-2.445C1495.502,868.202,1508.578,858.547,1517.528,846.02z"/>
	<path class="st9" d="M1809.051,874.146c1.693,0.819,0.931,3.118,1.323,4.632c0.897,15.319,2.635,30.616,2.333,45.98
		c0.135,16.452,0.056,32.892,0,49.333c0.28,8.635-1.211,17.192-1.267,25.827c-3.331,49.658-11.652,99.047-25.85,146.788
		c-9.633,32.119-21.207,63.766-36.638,93.586c-4.923,9.084-8.467,18.863-13.94,27.644c-11.641,20.377-24.74,39.89-39.15,58.417
		c-9.061,11.764-18.459,23.315-28.9,33.879c-6.639,7.917-14.074,15.095-21.442,22.294c-7.985,6.583-14.915,14.31-23.169,20.568
		c-32.758,28.227-69.329,51.755-107.514,71.919c-59.101,30.279-122.396,51.991-187.205,66.2
		c-11.226,1.447-22.205,4.239-33.341,6.168c-58.215,11.461-117.484,17.114-176.697,19.603c-12.975,1.57-26.074-0.067-39.049,1.189
		c-9.185,0.976-18.414,0.415-27.621,0.561c-7.559-0.146-15.151,0.392-22.687-0.404c1.469-3.039,5.327-2.265,8.086-2.467
		c7.144,0.224,14.198-1.099,21.33-1.088c8.299-0.123,16.642,0.404,24.908-0.594c8.254-1.11,16.598,0.056,24.851-1.043
		c37.423-2.355,75.598-4.127,111.383-16.373c9.577-2.972,19.345-5.417,28.608-9.342c55.097-17.786,109.297-38.634,161.311-64.147
		c7.245-2.938,14.097-6.695,20.904-10.542c20.724-10.183,40.664-21.902,60.458-33.79c44.713-27.307,86.902-58.832,125.267-94.539
		c14.601-14.927,29.999-29.102,43.636-44.948c27.038-30.492,50.937-63.777,71.426-98.991c6.146-10.497,11.316-21.487,17.181-32.13
		c4.789-9.947,9.286-20.029,13.828-30.089c6.527-12.134,10.62-25.345,15.353-38.242c14.074-41.943,23.842-85.365,28.631-129.349
		c1.626-13.783,2.075-27.655,3.185-41.471C1809.017,904.179,1808.232,889.14,1809.051,874.146z"/>
	<path class="st10" d="M1550.297,963.19c31.524-18.616,53.179-52.069,58.708-88.113c0.841,10.183-1.839,20.265-4.755,29.92
		c-10.755,34.788-37.692,64.405-71.885,77.291c-37.849,14.927-83.526,7.951-114.837-18.168c-8.972-6.695-16.385-15.14-22.956-24.134
		c-10.901-15.005-18.459-32.556-21.33-50.903c0.415-0.37,1.256-1.11,1.671-1.492c8.837,34.35,32.668,64.764,64.708,80.296
		C1474.217,984.98,1517.292,983.208,1550.297,963.19z"/>
	<path class="st10" d="M620.585,914.283c6.841,12.796,15.319,24.773,25.917,34.732c28.227,27.812,70.663,40.361,109.421,31.849
		c36.447-7.245,68.095-32.511,85.208-65.247c-0.662,6.751-4.43,12.56-7.48,18.448c-13.48,23.315-34.877,42.066-59.886,52.137
		c-19.962,7.772-42.043,10.026-63.138,6.258c-37.49-6.404-70.685-32.545-86.666-66.929
		C622.11,922.044,620.507,918.309,620.585,914.283z"/>
	<path class="st0" d="M2057.106,977.814c44.466-11.719,88.82-23.842,133.274-35.573c3.577,12.224,6.852,24.549,9.846,36.93
		c-85.242,22.967-170.563,45.61-255.782,68.633c-8.041,1.895-15.869,4.834-24.078,5.921c-3.23-11.944-6.56-23.876-9.532-35.864
		c0.325-0.292,0.987-0.864,1.312-1.144C1960.504,1003.91,2008.782,990.767,2057.106,977.814z"/>
	<path class="st0" d="M59.407,947.49c13.715,2.905,27.128,7.188,40.754,10.564c49.232,13.211,98.52,26.231,147.718,39.621
		c30.436,8.265,61.007,16.059,91.388,24.56c-3.073,12.314-6.628,24.504-9.757,36.818c-44.791-11.551-89.358-23.988-134.082-35.853
		c-48.615-12.975-97.264-25.85-145.79-39.15C52.724,971.814,55.931,959.612,59.407,947.49z"/>
	<path class="st0" d="M1031.891,1027.976c7.278-4.654,16.093-6.303,24.627-6.224c23.708,0.729,45.935,10.531,66.682,21.263
		c1.301,0.841,2.68-0.056,3.88-0.639c16.059-8.882,33.184-16.407,51.374-19.536c11.349-1.94,23.663-1.671,34.014,3.914
		c4.676,2.422,8.837,6.852,9.14,12.347c0.348,6.011-3.263,11.304-7.233,15.465c-8.164,8.456-18.089,14.893-27.554,21.767
		c-16.205,11.652-33.285,22.654-46.44,37.894c-3.701,4.104-7.391,8.859-7.929,14.534c1.391,3.342,3.981,5.977,6.448,8.568
		c26.747,27.711,64.977,44.948,103.757,43.546c11.125-0.673,22.272-2.232,32.859-5.82c32.242-10.486,60.076-31.21,83.807-54.996
		c5.293,2.86,10.463,5.955,15.644,9.039c-1.615,10.104-5.181,19.805-7.76,29.707c-14.142,48.817-30.75,97.197-54.223,142.403
		c-19.569,38.085-44.432,74.263-77.56,101.828c-30.829,25.738-70.125,41.909-110.486,42.57c-27.61-1.29-55.12-7.301-80.263-18.919
		c-36.582-16.497-66.783-44.791-89.627-77.425c-24.459-34.978-41.786-74.409-55.658-114.613
		c-9.274-26.668-16.968-53.83-24.65-80.969c-2.075-8.142-4.833-16.127-6.46-24.369c5.787-2.321,11.517-4.8,17.383-6.931
		c8.489,15.218,20.837,28.294,35.943,37.075c16.945,10.127,36.403,15.342,55.927,17.338c24.885,4.441,50.544,0.269,74.151-8.119
		c23.966-8.265,47.561-19.659,65.695-37.748c-0.785-5.159-3.342-9.802-6.617-13.783c-11.159-13.996-26.119-24.19-40.642-34.384
		c-10.945-7.716-22.283-14.938-32.623-23.483c-5.237-4.587-10.777-9.757-12.347-16.822
		C1023.817,1036.769,1027.181,1031.004,1031.891,1027.976 M1039.472,1040.335c1.94,2.905,4.307,5.495,7.02,7.704
		c9.23,7.772,19.48,14.209,29.315,21.162c14.657,9.768,28.732,20.455,41.359,32.769c0.572-8.602,0.168-17.214,0.28-25.816
		c-0.135-6.639,0.426-13.289-0.325-19.906c-15.499-8.624-32.164-15.51-49.602-18.975
		C1058.223,1035.961,1047.76,1034.997,1039.472,1040.335 M1155.218,1044.742c-7.974,3.387-15.925,6.953-23.315,11.506
		c-0.269,15.207-0.191,30.436-0.056,45.643c17.203-17.955,38.432-31.12,58.383-45.688c6.101-4.654,12.639-9.207,16.844-15.779
		c-3.151-1.951-6.605-3.454-10.329-3.791C1182.436,1035.019,1168.328,1039.427,1155.218,1044.742 M1112.322,1155.52
		c-13.357,11.865-29.147,20.769-45.856,26.971c-7.39,3.017-15.252,4.71-22.575,7.884c-12.807,3.006-25.838,5.215-39.016,5.82
		c-4.06-0.381-5.675,3.97-7.996,6.482c-13.671,17.158-26.881,34.709-40.855,51.609c-10.867-22.115-20.669-44.802-28.171-68.286
		c-0.74-3.005-4.25-3.566-6.561-4.957c-7.996-3.566-14.994-8.848-22.396-13.413c3.263,13.76,7.727,27.207,11.865,40.731
		c13.704,42.324,30.044,84.289,54.424,121.723c19.648,30.089,45.273,57.049,77.212,74.106c21.184,11.54,44.78,18.257,68.689,21.005
		c5.932,0.28,11.943,1.817,17.854,0.807c5.361,0.92,10.856,0.639,16.239,0.079c20.377-2.445,39.756-10.486,56.914-21.543
		c29.629-19.121,53.505-46.025,72.839-75.272c26.074-39.285,45.363-82.64,61.422-126.837c7.144-20.747,14.344-41.539,19.682-62.835
		c-6.942,5.125-12.964,11.36-19.558,16.912c-6.964,6.448-14.388,12.426-21.173,19.053c-3.398,20.444-12.964,39.217-22.149,57.598
		c-4.318,7.76-8.052,15.913-13.211,23.169c-15.028-18.616-29.539-37.659-44.499-56.32c-1.559-2.299-4.43-2.523-6.886-3.017
		c-21.689-3.802-42.582-11.708-61.635-22.665c-15.05-8.803-28.855-20.175-38.589-34.776
		C1123.077,1144.945,1118.098,1150.642,1112.322,1155.52 M1258.875,1195.646c-2.355,0.561-4.901,0.796-6.875,2.321
		c9.117,10.531,16.855,22.295,26.332,32.466c7.256-14.119,14.68-28.306,19.401-43.512
		C1284.713,1189.489,1271.861,1192.887,1258.875,1195.646 M943.532,1187.459c3.577,11.45,8.198,22.541,12.852,33.599
		c0.875,1.985,1.559,4.217,3.353,5.619c8.142-10.643,16.833-20.882,24.706-31.715
		C970.839,1192.304,957.213,1189.668,943.532,1187.459z"/>
	<path class="st11" d="M1039.472,1040.335c8.288-5.338,18.751-4.374,28.048-3.062c17.439,3.465,34.104,10.351,49.602,18.975
		c0.751,6.617,0.191,13.267,0.325,19.906c-0.112,8.602,0.292,17.214-0.28,25.816c-12.628-12.314-26.702-23.001-41.359-32.769
		c-9.835-6.953-20.085-13.39-29.315-21.162C1043.779,1045.83,1041.412,1043.24,1039.472,1040.335z"/>
	<path class="st11" d="M1155.218,1044.742c13.11-5.316,27.218-9.723,41.528-8.108c3.723,0.336,7.177,1.839,10.329,3.791
		c-4.206,6.572-10.744,11.125-16.844,15.779c-19.951,14.568-41.18,27.734-58.383,45.688c-0.135-15.207-0.213-30.436,0.056-45.643
		C1139.293,1051.695,1147.245,1048.129,1155.218,1044.742z"/>
	<path class="st0" d="M1908.244,1098c97.343,0.011,194.697,0.078,292.05-0.034c0.606,12.773,0.426,25.614,0.09,38.399
		c-97.387-0.022-194.786,0.056-292.173-0.034C1908.255,1123.547,1908.188,1110.774,1908.244,1098z"/>
	<path class="st0" d="M49.37,1103.125c97.365-0.224,194.73-0.112,292.095-0.056c0.224,12.74,0.269,25.502-0.022,38.242
		c-97.343,0.135-194.685,0.157-292.028-0.011C49.157,1128.583,49.247,1115.843,49.37,1103.125z"/>
	<path class="st2" d="M1132.453,1128.762c0.538-5.675,4.228-10.43,7.929-14.534c11.147,18.291,26.197,34.474,44.881,45.172
		c18.426,10.418,39.901,13.413,60.716,14.702c9.824,0.897,19.704,0.078,29.539,0.953c-10.587,3.589-21.734,5.148-32.859,5.82
		c-38.78,1.402-77.011-15.835-103.757-43.546C1136.434,1134.739,1133.843,1132.104,1132.453,1128.762z"/>
	<path class="st2" d="M1093.616,1133.416c6.056-5.058,11.058-11.237,17.147-16.272c3.275,3.981,5.832,8.624,6.617,13.783
		c-18.134,18.089-41.729,29.483-65.695,37.748c-23.607,8.389-49.266,12.56-74.151,8.119c9.431-1.536,19.031-1.705,28.474-3.185
		c10.878-1.514,21.655-3.802,32.152-7.065C1058.885,1159.927,1077.243,1147.513,1093.616,1133.416z"/>
	<path class="st3" d="M1112.322,1155.52c5.776-4.878,10.755-10.575,16.015-15.97c9.734,14.601,23.539,25.973,38.589,34.776
		c19.053,10.957,39.946,18.863,61.635,22.665c2.456,0.493,5.327,0.718,6.886,3.017c14.96,18.661,29.472,37.704,44.499,56.32
		c5.159-7.256,8.893-15.409,13.211-23.169c9.185-18.381,18.751-37.154,22.149-57.598c6.785-6.628,14.209-12.605,21.173-19.053
		c6.594-5.551,12.616-11.787,19.558-16.912c-5.338,21.296-12.538,42.088-19.682,62.835c-16.059,44.197-35.348,87.552-61.422,126.837
		c-19.334,29.248-43.21,56.151-72.839,75.272c-17.158,11.058-36.537,19.098-56.914,21.543c-5.383,0.561-10.878,0.841-16.239-0.079
		c7.234-4.867,15.454-8.389,21.588-14.747c16.194-14.815,27.857-33.767,37.602-53.247c9.667-18.953,17.237-38.892,23.809-59.112
		c5.529-17.809,10.575-35.909,12.717-54.48c1.592-11.237-3.925-22.048-11.372-30.078c-16.508-17.775-38.724-29.797-62.252-35.337
		c-9.566-2.22-19.637-2.938-29.248-0.628c-15.958,3.802-32.163,6.415-48.368,8.871c-9.813,1.357-19.603,3.118-29.528,3.129
		c7.323-3.174,15.185-4.867,22.575-7.884C1083.176,1176.289,1098.966,1167.385,1112.322,1155.52z"/>
	<path class="st4" d="M898.898,1167.632c7.402,4.564,14.4,9.846,22.396,13.413c2.31,1.391,5.82,1.951,6.561,4.957
		c7.503,23.483,17.304,46.17,28.171,68.286c13.973-16.9,27.184-34.451,40.855-51.609c2.321-2.512,3.936-6.863,7.996-6.482
		c13.177-0.606,26.208-2.815,39.016-5.82c9.925-0.011,19.715-1.772,29.528-3.129c16.205-2.456,32.41-5.069,48.368-8.871
		c9.611-2.31,19.682-1.593,29.248,0.628c23.528,5.54,45.744,17.562,62.252,35.337c7.447,8.03,12.964,18.841,11.372,30.078
		c-2.142,18.571-7.189,36.672-12.717,54.48c-6.572,20.22-14.142,40.16-23.809,59.112c-9.745,19.48-21.409,38.432-37.602,53.247
		c-6.134,6.359-14.355,9.88-21.588,14.747c-5.91,1.009-11.921-0.527-17.854-0.807c-23.91-2.747-47.505-9.465-68.689-21.005
		c-31.939-17.057-57.565-44.017-77.212-74.106c-24.38-37.434-40.72-79.399-54.424-121.723
		C906.624,1194.838,902.161,1181.392,898.898,1167.632z"/>
	<path class="st0" d="M1886.588,1205.122c3.219-12.246,6.37-24.515,9.835-36.683c24.212,5.966,48.223,12.807,72.356,19.166
		c50.23,13.166,100.281,26.982,150.477,40.294c23.584,6.471,47.325,12.381,70.854,19.076c-3.23,12.246-6.437,24.515-9.925,36.694
		c-47.067-11.943-93.855-25.087-140.799-37.546C1988.428,1232.542,1937.469,1218.983,1886.588,1205.122z"/>
	<path class="st0" d="M59.834,1251.764c97.926-25.917,195.638-52.63,293.587-78.446c3.51,12.213,6.751,24.526,9.824,36.862
		c-83.773,22.597-167.636,44.847-251.409,67.444c-14.097,3.577-28.036,7.794-42.212,10.99
		C66.349,1276.335,62.794,1264.111,59.834,1251.764z"/>
	<path class="st1" d="M1258.875,1195.646c12.986-2.759,25.838-6.157,38.858-8.725c-4.721,15.207-12.145,29.393-19.401,43.512
		c-9.476-10.172-17.214-21.936-26.332-32.466C1253.974,1196.442,1256.519,1196.207,1258.875,1195.646z"/>
	<path class="st1" d="M943.532,1187.459c13.682,2.209,27.308,4.845,40.911,7.503c-7.873,10.833-16.564,21.072-24.706,31.715
		c-1.794-1.402-2.478-3.634-3.353-5.619C951.729,1210,947.109,1198.909,943.532,1187.459z"/>
</g>
</svg>
