<svg width="43" height="38" viewBox="0 0 43 38" fill="none" xmlns="http://www.w3.org/2000/svg">
<path d="M21.9157 37.0933L12.1144 27.2669L0.831421 21.4396L2.65493 8.75659L0.831421 0.129883L21.9157 4.30041V37.0933Z" fill="#61D8DE"/>
<path d="M21.9157 37.0362L31.7171 27.2097L43 21.4396L41.1765 8.75659L43 0.129883L21.9157 4.30041V37.0362Z" fill="#4CC8C0"/>
<path d="M42.943 21.0396L27.1013 5.32876L42.943 0.0727539L41.2334 8.98511L42.943 21.0396Z" fill="#36C1BF"/>
<path d="M0.945068 21.0396L16.8438 5.27163L0.945068 0.0727539L2.71159 8.98511L0.945068 21.0396Z" fill="#36C1BF"/>
<path d="M41.1763 8.87084C40.8914 8.92797 27.1581 5.44301 27.1581 5.44301L42.8288 0.187012L41.1763 8.87084Z" fill="#22ACA7"/>
<path d="M2.71212 8.92798C2.99704 8.98511 16.7303 5.50015 16.7303 5.50015L1.05957 0.244141L2.71212 8.92798Z" fill="#22ACA7"/>
<path d="M25.0499 33.9512L21.9157 31.8374L18.7816 33.9512L21.9157 37.0363L25.0499 33.9512Z" fill="#B1DCE3"/>
</svg>
